<svg width="1060" height="1023" viewBox="0 0 1060 1023" fill="none" xmlns="http://www.w3.org/2000/svg">
<path d="M1449.29 -18.5952C1484.64 318.005 1280.72 615.231 993.905 645.356C707.088 675.482 445.859 427.112 410.504 90.5124C375.15 -246.087 579.073 -543.314 865.89 -573.439C1152.71 -603.565 1413.94 -355.195 1449.29 -18.5952Z" stroke="#010B0A" stroke-width="0.5"/>
<path d="M1472.87 81.4888C1508.23 418.088 1304.08 715.338 1016.99 745.493C729.9 775.647 468.448 527.3 433.094 190.701C397.74 -145.899 601.885 -443.149 888.977 -473.303C1176.07 -503.457 1437.52 -255.111 1472.87 81.4888Z" stroke="#010B0A" stroke-width="0.5"/>
<path d="M1407.65 -127.843C1443 208.757 1238.86 506.007 951.768 536.161C664.676 566.315 403.224 317.969 367.87 -18.6307C332.516 -355.23 536.661 -652.48 823.753 -682.634C1110.84 -712.789 1372.3 -464.442 1407.65 -127.843Z" stroke="#010B0A" stroke-width="0.5"/>
</svg>
