<svg width="416" height="122" viewBox="0 0 416 122" fill="none" xmlns="http://www.w3.org/2000/svg">
<g filter="url(#filter0_d_904_299)">
<rect width="368" height="74" transform="translate(21 14)" fill="#F9FEF0"/>
<path d="M56.8198 50.6128L56.8198 42.9732L72.4495 42.9732L72.4495 50.6128L56.8198 50.6128Z" fill="#BEF264"/>
<path d="M72.4495 42.9732L56.8198 42.9732L56.8198 26.8453C65.4519 26.8453 72.4495 34.4266 72.4495 42.9732Z" fill="#BEF264"/>
<path d="M72.4495 51.7749L72.4495 59.4145L56.8198 59.4145L56.8198 51.7749L72.4495 51.7749Z" fill="#BEF264"/>
<path d="M56.8198 59.4145L72.4495 59.4145L72.4495 75.1549C63.8174 75.1549 56.3677 68.6963 56.8198 59.4145Z" fill="#BEF264"/>
<path d="M89.5 50.6128L89.5 42.9732L73.9995 42.9732L73.9995 50.6128L89.5 50.6128Z" fill="#BEF264"/>
<path d="M73.9995 42.9732L89.5 42.9732L89.5 26.8453C80.9393 26.8453 73.9995 34.4266 73.9995 42.9732Z" fill="#BEF264"/>
<path d="M29.5 50.1607H30.7271L31.8897 48.9982L33.6335 53.0025L36.669 35.3706L38.8003 62.6257L41.5129 46.0272L42.74 50.1607H51.9112L55.3988 47.0606" stroke="#BEF264" stroke-width="1.03337" stroke-linecap="round" stroke-linejoin="round"/>
<path d="M41.5774 64.4337C41.5774 57.4424 47.2449 51.7749 54.2362 51.7749H55.7862V60.9461C55.7862 68.7934 49.4247 75.1549 41.5774 75.1549V64.4337Z" fill="#042F2E"/>
<path d="M73.9995 51.9043H89.5001V52.8085C89.5001 57.0888 86.0301 60.5588 81.7498 60.5588C77.4694 60.5588 73.9995 57.0888 73.9995 52.8085V51.9043Z" fill="#042F2E"/>
<path d="M113.973 47L116.146 33.9091H124.533L124.2 35.897H118.185L117.597 39.451H123.037L122.705 41.4389H117.265L116.344 47H113.973ZM128.005 47.1918C127.038 47.1918 126.232 46.9787 125.589 46.5526C124.95 46.1264 124.5 45.5277 124.24 44.7564C123.98 43.9851 123.933 43.0902 124.1 42.0717C124.266 41.0661 124.598 40.1861 125.097 39.4318C125.6 38.6776 126.232 38.0937 126.995 37.6804C127.762 37.2628 128.621 37.054 129.571 37.054C130.539 37.054 131.342 37.2692 131.981 37.6996C132.62 38.1257 133.07 38.7244 133.33 39.4957C133.594 40.267 133.643 41.1662 133.477 42.1932C133.315 43.1946 132.98 44.0703 132.473 44.8203C131.97 45.5703 131.338 46.1541 130.575 46.5717C129.812 46.9851 128.955 47.1918 128.005 47.1918ZM128.197 45.3381C128.734 45.3381 129.205 45.1932 129.61 44.9034C130.019 44.6094 130.353 44.2152 130.613 43.7209C130.877 43.2223 131.061 42.6683 131.163 42.0589C131.257 41.4709 131.259 40.9382 131.169 40.4609C131.08 39.9794 130.888 39.598 130.594 39.3168C130.304 39.0312 129.901 38.8885 129.386 38.8885C128.849 38.8885 128.374 39.0376 127.96 39.3359C127.551 39.63 127.217 40.0263 126.957 40.5249C126.697 41.0192 126.518 41.571 126.42 42.1804C126.322 42.7685 126.318 43.3011 126.407 43.7784C126.497 44.2557 126.688 44.6349 126.982 44.9162C127.276 45.1974 127.681 45.3381 128.197 45.3381ZM134.648 47L136.284 37.1818H138.528L138.253 38.8182H138.355C138.624 38.2514 139.003 37.8146 139.493 37.5078C139.988 37.1967 140.516 37.0412 141.078 37.0412C141.211 37.0412 141.353 37.0476 141.507 37.0604C141.66 37.0689 141.792 37.0838 141.903 37.1051L141.545 39.2337C141.447 39.1996 141.294 39.1697 141.085 39.1442C140.88 39.1143 140.678 39.0994 140.478 39.0994C140.056 39.0994 139.664 39.1911 139.301 39.3743C138.944 39.5533 138.641 39.8026 138.394 40.1222C138.147 40.4418 137.987 40.8104 137.914 41.228L136.962 47H134.648ZM146.369 47L148.543 33.9091H153.452C154.458 33.9091 155.271 34.0966 155.894 34.4716C156.516 34.8423 156.948 35.3558 157.191 36.0121C157.434 36.6641 157.485 37.4077 157.345 38.2429C157.208 39.0824 156.908 39.8281 156.443 40.4801C155.983 41.1321 155.376 41.6456 154.622 42.0206C153.867 42.3913 152.985 42.5767 151.975 42.5767H148.722L149.048 40.6271H151.982C152.57 40.6271 153.068 40.5249 153.477 40.3203C153.891 40.1158 154.217 39.8345 154.455 39.4766C154.694 39.1186 154.852 38.7074 154.928 38.2429C155.001 37.7784 154.977 37.3693 154.858 37.0156C154.739 36.6619 154.507 36.3871 154.161 36.1911C153.82 35.9908 153.354 35.8906 152.762 35.8906H150.588L148.741 47H146.369ZM160.458 47.1982C159.835 47.1982 159.294 47.0874 158.834 46.8658C158.374 46.6399 158.035 46.3075 157.818 45.8686C157.605 45.4297 157.551 44.8885 157.658 44.245C157.752 43.6911 157.931 43.233 158.195 42.8707C158.463 42.5085 158.791 42.2188 159.179 42.0014C159.571 41.7798 159.997 41.6136 160.458 41.5028C160.922 41.392 161.395 41.3111 161.877 41.2599C162.465 41.2003 162.94 41.1449 163.302 41.0938C163.669 41.0426 163.943 40.9659 164.127 40.8636C164.31 40.7571 164.421 40.5952 164.459 40.3778V40.3395C164.536 39.858 164.459 39.4851 164.229 39.2209C163.999 38.9567 163.615 38.8246 163.078 38.8246C162.516 38.8246 162.043 38.9482 161.659 39.1953C161.276 39.4425 160.997 39.7344 160.822 40.071L158.725 39.7642C158.99 39.1676 159.352 38.669 159.812 38.2685C160.272 37.8636 160.803 37.5611 161.404 37.3608C162.009 37.1562 162.654 37.054 163.34 37.054C163.809 37.054 164.267 37.1094 164.715 37.2202C165.166 37.331 165.565 37.5142 165.91 37.7699C166.259 38.0213 166.515 38.3643 166.677 38.799C166.843 39.2337 166.871 39.777 166.76 40.429L165.667 47H163.443L163.673 45.6513H163.596C163.413 45.924 163.174 46.1797 162.88 46.4183C162.586 46.6527 162.237 46.8423 161.832 46.9872C161.427 47.1278 160.969 47.1982 160.458 47.1982ZM161.333 45.4979C161.798 45.4979 162.215 45.4062 162.586 45.223C162.957 45.0355 163.262 44.7884 163.5 44.4815C163.739 44.1747 163.888 43.8402 163.948 43.478L164.139 42.321C164.054 42.3807 163.922 42.4361 163.743 42.4872C163.564 42.5384 163.364 42.5831 163.142 42.6214C162.925 42.6598 162.71 42.6939 162.497 42.7237C162.284 42.7536 162.1 42.7791 161.947 42.8004C161.593 42.8473 161.269 42.924 160.975 43.0305C160.686 43.1371 160.445 43.2862 160.253 43.478C160.066 43.6655 159.948 43.9084 159.901 44.2067C159.833 44.6286 159.933 44.9503 160.202 45.1719C160.47 45.3892 160.847 45.4979 161.333 45.4979ZM174.533 37.1818L174.232 38.9716H168.595L168.889 37.1818H174.533ZM170.666 34.8295H172.98L171.445 44.0469C171.399 44.358 171.407 44.5966 171.471 44.7628C171.539 44.9247 171.648 45.0355 171.797 45.0952C171.95 45.1548 172.123 45.1847 172.315 45.1847C172.455 45.1847 172.588 45.174 172.711 45.1527C172.835 45.1271 172.933 45.108 173.005 45.0952L173.107 46.9041C172.967 46.9467 172.777 46.9936 172.539 47.0447C172.304 47.0959 172.023 47.1257 171.695 47.1342C171.107 47.147 170.595 47.0575 170.161 46.8658C169.73 46.6697 169.415 46.3693 169.215 45.9645C169.019 45.5554 168.974 45.044 169.08 44.4304L170.666 34.8295ZM174.832 47L176.468 37.1818H178.782L177.146 47H174.832ZM177.964 35.7756C177.593 35.7756 177.286 35.652 177.043 35.4048C176.8 35.1577 176.694 34.8615 176.724 34.5163C176.754 34.1712 176.909 33.875 177.19 33.6278C177.476 33.3807 177.802 33.2571 178.168 33.2571C178.539 33.2571 178.844 33.3807 179.082 33.6278C179.325 33.875 179.432 34.1712 179.402 34.5163C179.376 34.8615 179.221 35.1577 178.935 35.4048C178.654 35.652 178.33 35.7756 177.964 35.7756ZM183.846 47.1918C182.862 47.1918 182.048 46.9872 181.404 46.5781C180.761 46.1648 180.309 45.581 180.049 44.8267C179.794 44.0682 179.751 43.1754 179.921 42.1484C180.088 41.1385 180.426 40.2521 180.938 39.4893C181.449 38.7223 182.088 38.1257 182.855 37.6996C183.627 37.2692 184.479 37.054 185.412 37.054C186.017 37.054 186.573 37.152 187.08 37.348C187.588 37.5398 188.016 37.8381 188.365 38.2429C188.715 38.6477 188.955 39.1634 189.088 39.7898C189.22 40.4119 189.213 41.1534 189.068 42.0142L188.96 42.7237H180.906L181.155 41.1641H186.985C187.061 40.7209 187.036 40.3267 186.908 39.9815C186.78 39.6321 186.567 39.3572 186.269 39.157C185.97 38.9567 185.597 38.8565 185.15 38.8565C184.694 38.8565 184.268 38.9737 183.872 39.2081C183.48 39.4382 183.149 39.7365 182.881 40.103C182.612 40.4695 182.442 40.8551 182.369 41.2599L182.107 42.7557C182.014 43.3693 182.035 43.87 182.171 44.2578C182.308 44.6456 182.546 44.9311 182.887 45.1143C183.228 45.2976 183.659 45.3892 184.178 45.3892C184.519 45.3892 184.835 45.3423 185.124 45.2486C185.414 45.1548 185.672 45.0142 185.898 44.8267C186.128 44.6349 186.32 44.4006 186.473 44.1236L188.589 44.3665C188.355 44.9375 188.012 45.4361 187.56 45.8622C187.108 46.2841 186.567 46.6122 185.936 46.8466C185.31 47.0767 184.613 47.1918 183.846 47.1918ZM193.485 41.2472L192.539 47H190.219L191.855 37.1818H194.073L193.792 38.8501H193.914C194.22 38.3004 194.651 37.8636 195.205 37.5398C195.759 37.2159 196.404 37.054 197.142 37.054C197.811 37.054 198.373 37.1989 198.829 37.4886C199.285 37.7741 199.609 38.1939 199.801 38.7479C199.992 39.2976 200.022 39.9645 199.89 40.7486L198.842 47H196.528L197.506 41.1065C197.617 40.4545 197.534 39.9432 197.257 39.5724C196.984 39.1974 196.545 39.0099 195.94 39.0099C195.535 39.0099 195.162 39.0994 194.821 39.2784C194.48 39.4531 194.193 39.7067 193.958 40.0391C193.728 40.3714 193.57 40.7741 193.485 41.2472ZM207.72 37.1818L207.42 38.9716H201.782L202.076 37.1818H207.72ZM203.853 34.8295H206.167L204.633 44.0469C204.586 44.358 204.595 44.5966 204.659 44.7628C204.727 44.9247 204.835 45.0355 204.985 45.0952C205.138 45.1548 205.311 45.1847 205.502 45.1847C205.643 45.1847 205.775 45.174 205.899 45.1527C206.022 45.1271 206.12 45.108 206.193 45.0952L206.295 46.9041C206.154 46.9467 205.965 46.9936 205.726 47.0447C205.492 47.0959 205.21 47.1257 204.882 47.1342C204.294 47.147 203.783 47.0575 203.348 46.8658C202.918 46.6697 202.602 46.3693 202.402 45.9645C202.206 45.5554 202.161 45.044 202.268 44.4304L203.853 34.8295ZM216.834 39.777L214.705 40.0071C214.684 39.7898 214.618 39.5874 214.507 39.3999C214.396 39.2124 214.23 39.0632 214.009 38.9524C213.791 38.8374 213.51 38.7798 213.165 38.7798C212.662 38.7798 212.221 38.8928 211.842 39.1186C211.462 39.3445 211.247 39.6342 211.196 39.9879C211.149 40.2521 211.213 40.4673 211.388 40.6335C211.563 40.7997 211.886 40.9403 212.359 41.0554L213.983 41.4134C214.878 41.6136 215.521 41.9375 215.913 42.3849C216.31 42.8324 216.448 43.4183 216.329 44.1428C216.227 44.7479 215.962 45.2805 215.536 45.7408C215.11 46.1967 214.565 46.5526 213.9 46.8082C213.239 47.0639 212.506 47.1918 211.701 47.1918C210.478 47.1918 209.536 46.9382 208.876 46.4311C208.219 45.9197 207.893 45.2166 207.898 44.3217L210.173 44.1044C210.199 44.5476 210.354 44.8821 210.64 45.108C210.925 45.3295 211.322 45.4425 211.829 45.4467C212.4 45.451 212.881 45.3317 213.273 45.0888C213.67 44.8416 213.893 44.5412 213.945 44.1875C213.987 43.9233 213.921 43.7081 213.746 43.5419C213.576 43.3757 213.271 43.2436 212.832 43.1456L211.222 42.794C210.31 42.5937 209.66 42.255 209.272 41.7777C208.888 41.2962 208.759 40.6889 208.882 39.956C208.984 39.3594 209.234 38.8459 209.63 38.4155C210.031 37.9808 210.544 37.6463 211.17 37.4119C211.797 37.1733 212.498 37.054 213.273 37.054C214.441 37.054 215.321 37.299 215.913 37.7891C216.506 38.2791 216.813 38.9418 216.834 39.777ZM115.085 69V55.9091H119.662C120.574 55.9091 121.326 56.0668 121.918 56.3821C122.511 56.6932 122.952 57.1129 123.241 57.6413C123.531 58.1655 123.676 58.7472 123.676 59.3864C123.676 59.9489 123.576 60.4134 123.376 60.7798C123.18 61.1463 122.92 61.4361 122.596 61.6491C122.276 61.8622 121.929 62.0199 121.554 62.1222V62.25C121.955 62.2756 122.357 62.4162 122.762 62.6719C123.167 62.9276 123.506 63.294 123.778 63.7713C124.051 64.2486 124.188 64.8324 124.188 65.5227C124.188 66.179 124.038 66.7692 123.74 67.2933C123.442 67.8175 122.971 68.233 122.327 68.5398C121.684 68.8466 120.847 69 119.815 69H115.085ZM116.67 67.5938H119.815C120.851 67.5938 121.586 67.3935 122.021 66.9929C122.46 66.5881 122.679 66.098 122.679 65.5227C122.679 65.0795 122.566 64.6705 122.34 64.2955C122.114 63.9162 121.793 63.6136 121.375 63.3878C120.957 63.1577 120.463 63.0426 119.892 63.0426H116.67V67.5938ZM116.67 61.6619H119.611C120.088 61.6619 120.518 61.5682 120.902 61.3807C121.29 61.1932 121.597 60.929 121.822 60.5881C122.053 60.2472 122.168 59.8466 122.168 59.3864C122.168 58.8111 121.967 58.3232 121.567 57.9226C121.166 57.5178 120.531 57.3153 119.662 57.3153H116.67V61.6619ZM130.576 69.2045C129.69 69.2045 128.912 68.9936 128.243 68.5717C127.578 68.1499 127.059 67.5597 126.684 66.8011C126.313 66.0426 126.127 65.1562 126.127 64.142C126.127 63.1193 126.313 62.2266 126.684 61.4638C127.059 60.701 127.578 60.1087 128.243 59.6868C128.912 59.2649 129.69 59.054 130.576 59.054C131.463 59.054 132.238 59.2649 132.903 59.6868C133.572 60.1087 134.092 60.701 134.463 61.4638C134.838 62.2266 135.025 63.1193 135.025 64.142C135.025 65.1562 134.838 66.0426 134.463 66.8011C134.092 67.5597 133.572 68.1499 132.903 68.5717C132.238 68.9936 131.463 69.2045 130.576 69.2045ZM130.576 67.8494C131.25 67.8494 131.804 67.6768 132.238 67.3317C132.673 66.9865 132.995 66.5327 133.203 65.9702C133.412 65.4077 133.517 64.7983 133.517 64.142C133.517 63.4858 133.412 62.8743 133.203 62.3075C132.995 61.7408 132.673 61.2827 132.238 60.9332C131.804 60.5838 131.25 60.4091 130.576 60.4091C129.903 60.4091 129.349 60.5838 128.914 60.9332C128.48 61.2827 128.158 61.7408 127.949 62.3075C127.74 62.8743 127.636 63.4858 127.636 64.142C127.636 64.7983 127.74 65.4077 127.949 65.9702C128.158 66.5327 128.48 66.9865 128.914 67.3317C129.349 67.6768 129.903 67.8494 130.576 67.8494ZM141.317 69.2045C140.43 69.2045 139.653 68.9936 138.983 68.5717C138.319 68.1499 137.799 67.5597 137.424 66.8011C137.053 66.0426 136.868 65.1562 136.868 64.142C136.868 63.1193 137.053 62.2266 137.424 61.4638C137.799 60.701 138.319 60.1087 138.983 59.6868C139.653 59.2649 140.43 59.054 141.317 59.054C142.203 59.054 142.979 59.2649 143.643 59.6868C144.312 60.1087 144.832 60.701 145.203 61.4638C145.578 62.2266 145.765 63.1193 145.765 64.142C145.765 65.1562 145.578 66.0426 145.203 66.8011C144.832 67.5597 144.312 68.1499 143.643 68.5717C142.979 68.9936 142.203 69.2045 141.317 69.2045ZM141.317 67.8494C141.99 67.8494 142.544 67.6768 142.979 67.3317C143.413 66.9865 143.735 66.5327 143.944 65.9702C144.153 65.4077 144.257 64.7983 144.257 64.142C144.257 63.4858 144.153 62.8743 143.944 62.3075C143.735 61.7408 143.413 61.2827 142.979 60.9332C142.544 60.5838 141.99 60.4091 141.317 60.4091C140.643 60.4091 140.089 60.5838 139.655 60.9332C139.22 61.2827 138.898 61.7408 138.689 62.3075C138.481 62.8743 138.376 63.4858 138.376 64.142C138.376 64.7983 138.481 65.4077 138.689 65.9702C138.898 66.5327 139.22 66.9865 139.655 67.3317C140.089 67.6768 140.643 67.8494 141.317 67.8494ZM149.474 65.4205L149.449 63.554H149.756L154.051 59.1818H155.918L151.341 63.8097H151.213L149.474 65.4205ZM148.068 69V55.9091H149.577V69H148.068ZM154.307 69L150.472 64.142L151.545 63.0938L156.224 69H154.307ZM165.811 69.2301C165.189 69.2301 164.624 69.1129 164.117 68.8786C163.61 68.6399 163.207 68.2969 162.909 67.8494C162.611 67.3977 162.461 66.8523 162.461 66.2131C162.461 65.6506 162.572 65.1946 162.794 64.8452C163.015 64.4915 163.312 64.2145 163.682 64.0142C164.053 63.8139 164.462 63.6648 164.91 63.5668C165.361 63.4645 165.815 63.3835 166.271 63.3239C166.868 63.2472 167.351 63.1896 167.722 63.1513C168.097 63.1087 168.37 63.0384 168.54 62.9403C168.715 62.8423 168.802 62.6719 168.802 62.429V62.3778C168.802 61.7472 168.63 61.2571 168.285 60.9077C167.944 60.5582 167.426 60.3835 166.731 60.3835C166.011 60.3835 165.447 60.5412 165.037 60.8565C164.628 61.1719 164.341 61.5085 164.175 61.8665L162.743 61.3551C162.998 60.7585 163.339 60.294 163.765 59.9616C164.196 59.625 164.665 59.3906 165.172 59.2585C165.683 59.1222 166.186 59.054 166.68 59.054C166.996 59.054 167.358 59.0923 167.767 59.169C168.18 59.2415 168.579 59.3928 168.962 59.6229C169.35 59.853 169.672 60.2003 169.927 60.6648C170.183 61.1293 170.311 61.7514 170.311 62.5312V69H168.802V67.6705H168.726C168.623 67.8835 168.453 68.1115 168.214 68.3544C167.976 68.5973 167.658 68.804 167.262 68.9744C166.866 69.1449 166.382 69.2301 165.811 69.2301ZM166.041 67.875C166.638 67.875 167.14 67.7578 167.55 67.5234C167.963 67.2891 168.274 66.9865 168.483 66.6158C168.696 66.245 168.802 65.8551 168.802 65.446V64.0653C168.738 64.142 168.598 64.2124 168.381 64.2763C168.167 64.3359 167.92 64.3892 167.639 64.4361C167.362 64.4787 167.091 64.517 166.827 64.5511C166.567 64.581 166.356 64.6065 166.194 64.6278C165.802 64.679 165.436 64.7621 165.095 64.8771C164.758 64.9879 164.486 65.1562 164.277 65.3821C164.072 65.6037 163.97 65.9062 163.97 66.2898C163.97 66.8139 164.164 67.2102 164.552 67.4787C164.944 67.7429 165.44 67.875 166.041 67.875ZM173.064 72.6818V59.1818H174.522V60.7415H174.701C174.811 60.571 174.965 60.3537 175.161 60.0895C175.361 59.821 175.647 59.5824 176.017 59.3736C176.392 59.1605 176.9 59.054 177.539 59.054C178.365 59.054 179.094 59.2607 179.725 59.674C180.355 60.0874 180.848 60.6733 181.201 61.4318C181.555 62.1903 181.732 63.0852 181.732 64.1165C181.732 65.1562 181.555 66.0575 181.201 66.8203C180.848 67.5788 180.358 68.1669 179.731 68.5845C179.105 68.9979 178.382 69.2045 177.564 69.2045C176.934 69.2045 176.429 69.1001 176.049 68.8913C175.67 68.6783 175.378 68.4375 175.174 68.169C174.969 67.8963 174.811 67.6705 174.701 67.4915H174.573V72.6818H173.064ZM174.547 64.0909C174.547 64.8324 174.656 65.4865 174.873 66.0533C175.091 66.6158 175.408 67.0568 175.826 67.3764C176.243 67.6918 176.755 67.8494 177.36 67.8494C177.99 67.8494 178.517 67.6832 178.939 67.3509C179.365 67.0142 179.684 66.5625 179.897 65.9957C180.115 65.4247 180.223 64.7898 180.223 64.0909C180.223 63.4006 180.117 62.7784 179.904 62.2244C179.695 61.6662 179.377 61.2251 178.951 60.9013C178.529 60.5732 177.999 60.4091 177.36 60.4091C176.746 60.4091 176.23 60.5646 175.813 60.8757C175.395 61.1825 175.08 61.6129 174.867 62.1669C174.654 62.7166 174.547 63.358 174.547 64.0909ZM184.033 72.6818V59.1818H185.49V60.7415H185.669C185.78 60.571 185.934 60.3537 186.13 60.0895C186.33 59.821 186.615 59.5824 186.986 59.3736C187.361 59.1605 187.868 59.054 188.507 59.054C189.334 59.054 190.063 59.2607 190.694 59.674C191.324 60.0874 191.816 60.6733 192.17 61.4318C192.524 62.1903 192.701 63.0852 192.701 64.1165C192.701 65.1562 192.524 66.0575 192.17 66.8203C191.816 67.5788 191.326 68.1669 190.7 68.5845C190.074 68.9979 189.351 69.2045 188.533 69.2045C187.902 69.2045 187.397 69.1001 187.018 68.8913C186.639 68.6783 186.347 68.4375 186.142 68.169C185.938 67.8963 185.78 67.6705 185.669 67.4915H185.542V72.6818H184.033ZM185.516 64.0909C185.516 64.8324 185.625 65.4865 185.842 66.0533C186.059 66.6158 186.377 67.0568 186.794 67.3764C187.212 67.6918 187.723 67.8494 188.328 67.8494C188.959 67.8494 189.485 67.6832 189.907 67.3509C190.333 67.0142 190.653 66.5625 190.866 65.9957C191.083 65.4247 191.192 64.7898 191.192 64.0909C191.192 63.4006 191.086 62.7784 190.873 62.2244C190.664 61.6662 190.346 61.2251 189.92 60.9013C189.498 60.5732 188.968 60.4091 188.328 60.4091C187.715 60.4091 187.199 60.5646 186.782 60.8757C186.364 61.1825 186.049 61.6129 185.836 62.1669C185.623 62.7166 185.516 63.358 185.516 64.0909ZM198.99 69.2045C198.104 69.2045 197.326 68.9936 196.657 68.5717C195.993 68.1499 195.473 67.5597 195.098 66.8011C194.727 66.0426 194.542 65.1562 194.542 64.142C194.542 63.1193 194.727 62.2266 195.098 61.4638C195.473 60.701 195.993 60.1087 196.657 59.6868C197.326 59.2649 198.104 59.054 198.99 59.054C199.877 59.054 200.652 59.2649 201.317 59.6868C201.986 60.1087 202.506 60.701 202.877 61.4638C203.252 62.2266 203.439 63.1193 203.439 64.142C203.439 65.1562 203.252 66.0426 202.877 66.8011C202.506 67.5597 201.986 68.1499 201.317 68.5717C200.652 68.9936 199.877 69.2045 198.99 69.2045ZM198.99 67.8494C199.664 67.8494 200.218 67.6768 200.652 67.3317C201.087 66.9865 201.409 66.5327 201.618 65.9702C201.826 65.4077 201.931 64.7983 201.931 64.142C201.931 63.4858 201.826 62.8743 201.618 62.3075C201.409 61.7408 201.087 61.2827 200.652 60.9332C200.218 60.5838 199.664 60.4091 198.99 60.4091C198.317 60.4091 197.763 60.5838 197.328 60.9332C196.894 61.2827 196.572 61.7408 196.363 62.3075C196.154 62.8743 196.05 63.4858 196.05 64.142C196.05 64.7983 196.154 65.4077 196.363 65.9702C196.572 66.5327 196.894 66.9865 197.328 67.3317C197.763 67.6768 198.317 67.8494 198.99 67.8494ZM205.742 69V59.1818H207.251V69H205.742ZM206.509 57.5455C206.215 57.5455 205.961 57.4453 205.748 57.245C205.54 57.0447 205.435 56.804 205.435 56.5227C205.435 56.2415 205.54 56.0007 205.748 55.8004C205.961 55.6001 206.215 55.5 206.509 55.5C206.803 55.5 207.055 55.6001 207.263 55.8004C207.476 56.0007 207.583 56.2415 207.583 56.5227C207.583 56.804 207.476 57.0447 207.263 57.245C207.055 57.4453 206.803 57.5455 206.509 57.5455ZM211.522 63.0938V69H210.013V59.1818H211.471V60.7159H211.599C211.829 60.2173 212.178 59.8168 212.647 59.5142C213.116 59.2074 213.721 59.054 214.462 59.054C215.127 59.054 215.709 59.1903 216.207 59.4631C216.706 59.7315 217.094 60.1406 217.371 60.6903C217.648 61.2358 217.786 61.9261 217.786 62.7614V69H216.278V62.8636C216.278 62.0923 216.077 61.4915 215.677 61.0611C215.276 60.6264 214.727 60.4091 214.028 60.4091C213.546 60.4091 213.116 60.5135 212.737 60.7223C212.362 60.9311 212.065 61.2358 211.848 61.6364C211.631 62.0369 211.522 62.5227 211.522 63.0938ZM224.813 59.1818V60.4602H219.725V59.1818H224.813ZM221.208 56.8295H222.716V66.1875C222.716 66.6136 222.778 66.9332 222.901 67.1463C223.029 67.3551 223.191 67.4957 223.387 67.5682C223.588 67.6364 223.798 67.6705 224.02 67.6705C224.186 67.6705 224.323 67.6619 224.429 67.6449C224.536 67.6236 224.621 67.6065 224.685 67.5938L224.992 68.9489C224.889 68.9872 224.747 69.0256 224.563 69.0639C224.38 69.1065 224.148 69.1278 223.867 69.1278C223.441 69.1278 223.023 69.0362 222.614 68.853C222.209 68.6697 221.872 68.3906 221.604 68.0156C221.34 67.6406 221.208 67.1676 221.208 66.5966V56.8295ZM227.082 69V59.1818H228.539V60.7159H228.667C228.872 60.1918 229.202 59.7848 229.658 59.495C230.114 59.201 230.661 59.054 231.301 59.054C231.948 59.054 232.487 59.201 232.918 59.495C233.352 59.7848 233.691 60.1918 233.934 60.7159H234.036C234.288 60.2088 234.665 59.8061 235.168 59.5078C235.671 59.2053 236.274 59.054 236.977 59.054C237.855 59.054 238.573 59.3288 239.131 59.8786C239.689 60.424 239.968 61.2741 239.968 62.429V69H238.46V62.429C238.46 61.7045 238.262 61.1868 237.865 60.8757C237.469 60.5646 237.002 60.4091 236.465 60.4091C235.775 60.4091 235.24 60.6179 234.861 61.0355C234.482 61.4489 234.292 61.973 234.292 62.608V69H232.758V62.2756C232.758 61.7173 232.577 61.2678 232.215 60.9268C231.852 60.5817 231.386 60.4091 230.815 60.4091C230.423 60.4091 230.056 60.5135 229.715 60.7223C229.379 60.9311 229.106 61.2209 228.897 61.5916C228.693 61.9581 228.59 62.3821 228.59 62.8636V69H227.082ZM246.843 69.2045C245.897 69.2045 245.081 68.9957 244.395 68.5781C243.713 68.1562 243.187 67.5682 242.816 66.8139C242.449 66.0554 242.266 65.1733 242.266 64.1676C242.266 63.1619 242.449 62.2756 242.816 61.5085C243.187 60.7372 243.702 60.1364 244.363 59.706C245.028 59.2713 245.803 59.054 246.689 59.054C247.201 59.054 247.706 59.1392 248.204 59.3097C248.703 59.4801 249.157 59.7571 249.566 60.1406C249.975 60.5199 250.301 61.0227 250.544 61.6491C250.787 62.2756 250.908 63.0469 250.908 63.9631V64.6023H243.34V63.2983H249.374C249.374 62.7443 249.263 62.25 249.042 61.8153C248.824 61.3807 248.513 61.0376 248.108 60.7862C247.708 60.5348 247.235 60.4091 246.689 60.4091C246.089 60.4091 245.569 60.5582 245.13 60.8565C244.695 61.1506 244.361 61.5341 244.126 62.0071C243.892 62.4801 243.775 62.9872 243.775 63.5284V64.3977C243.775 65.1392 243.903 65.7678 244.158 66.2834C244.418 66.7947 244.778 67.1847 245.238 67.4531C245.699 67.7173 246.233 67.8494 246.843 67.8494C247.239 67.8494 247.597 67.794 247.917 67.6832C248.241 67.5682 248.52 67.3977 248.754 67.1719C248.988 66.9418 249.17 66.6562 249.297 66.3153L250.755 66.7244C250.601 67.2188 250.344 67.6534 249.981 68.0284C249.619 68.3991 249.172 68.6889 248.639 68.8977C248.106 69.1023 247.508 69.2045 246.843 69.2045ZM254.711 63.0938V69H253.203V59.1818H254.66V60.7159H254.788C255.018 60.2173 255.368 59.8168 255.836 59.5142C256.305 59.2074 256.91 59.054 257.652 59.054C258.317 59.054 258.898 59.1903 259.397 59.4631C259.895 59.7315 260.283 60.1406 260.56 60.6903C260.837 61.2358 260.976 61.9261 260.976 62.7614V69H259.467V62.8636C259.467 62.0923 259.267 61.4915 258.866 61.0611C258.466 60.6264 257.916 60.4091 257.217 60.4091C256.736 60.4091 256.305 60.5135 255.926 60.7223C255.551 60.9311 255.255 61.2358 255.037 61.6364C254.82 62.0369 254.711 62.5227 254.711 63.0938ZM268.002 59.1818V60.4602H262.914V59.1818H268.002ZM264.397 56.8295H265.906V66.1875C265.906 66.6136 265.967 66.9332 266.091 67.1463C266.219 67.3551 266.381 67.4957 266.577 67.5682C266.777 67.6364 266.988 67.6705 267.21 67.6705C267.376 67.6705 267.512 67.6619 267.619 67.6449C267.725 67.6236 267.81 67.6065 267.874 67.5938L268.181 68.9489C268.079 68.9872 267.936 69.0256 267.753 69.0639C267.57 69.1065 267.337 69.1278 267.056 69.1278C266.63 69.1278 266.212 69.0362 265.803 68.853C265.398 68.6697 265.062 68.3906 264.793 68.0156C264.529 67.6406 264.397 67.1676 264.397 66.5966V56.8295ZM277.05 61.3807L275.695 61.7642C275.61 61.5384 275.484 61.3189 275.318 61.1058C275.156 60.8885 274.934 60.7095 274.653 60.5689C274.372 60.4283 274.012 60.358 273.573 60.358C272.972 60.358 272.471 60.4964 272.071 60.7734C271.674 61.0462 271.476 61.3935 271.476 61.8153C271.476 62.1903 271.613 62.4865 271.885 62.7038C272.158 62.9212 272.584 63.1023 273.164 63.2472L274.621 63.6051C275.499 63.8182 276.153 64.1442 276.583 64.5831C277.014 65.0178 277.229 65.5781 277.229 66.2642C277.229 66.8267 277.067 67.3295 276.743 67.7727C276.424 68.2159 275.976 68.5653 275.401 68.821C274.826 69.0767 274.157 69.2045 273.394 69.2045C272.392 69.2045 271.564 68.9872 270.907 68.5526C270.251 68.1179 269.836 67.483 269.661 66.6477L271.093 66.2898C271.229 66.8182 271.487 67.2145 271.866 67.4787C272.25 67.7429 272.75 67.875 273.368 67.875C274.071 67.875 274.63 67.7259 275.043 67.4276C275.461 67.125 275.669 66.7628 275.669 66.3409C275.669 66 275.55 65.7145 275.311 65.4844C275.073 65.25 274.706 65.0753 274.212 64.9602L272.576 64.5767C271.676 64.3636 271.016 64.0334 270.594 63.5859C270.176 63.1342 269.968 62.5696 269.968 61.892C269.968 61.3381 270.123 60.848 270.434 60.4219C270.75 59.9957 271.178 59.6612 271.719 59.4183C272.265 59.1754 272.882 59.054 273.573 59.054C274.544 59.054 275.307 59.267 275.861 59.6932C276.419 60.1193 276.816 60.6818 277.05 61.3807ZM284.562 69V59.1818H286.071V69H284.562ZM285.329 57.5455C285.035 57.5455 284.782 57.4453 284.569 57.245C284.36 57.0447 284.256 56.804 284.256 56.5227C284.256 56.2415 284.36 56.0007 284.569 55.8004C284.782 55.6001 285.035 55.5 285.329 55.5C285.623 55.5 285.875 55.6001 286.084 55.8004C286.297 56.0007 286.403 56.2415 286.403 56.5227C286.403 56.804 286.297 57.0447 286.084 57.245C285.875 57.4453 285.623 57.5455 285.329 57.5455ZM290.342 63.0938V69H288.834V59.1818H290.291V60.7159H290.419C290.649 60.2173 290.999 59.8168 291.467 59.5142C291.936 59.2074 292.541 59.054 293.283 59.054C293.947 59.054 294.529 59.1903 295.028 59.4631C295.526 59.7315 295.914 60.1406 296.191 60.6903C296.468 61.2358 296.607 61.9261 296.607 62.7614V69H295.098V62.8636C295.098 62.0923 294.898 61.4915 294.497 61.0611C294.097 60.6264 293.547 60.4091 292.848 60.4091C292.366 60.4091 291.936 60.5135 291.557 60.7223C291.182 60.9311 290.886 61.2358 290.668 61.6364C290.451 62.0369 290.342 62.5227 290.342 63.0938ZM311.38 61.3807L310.025 61.7642C309.94 61.5384 309.814 61.3189 309.648 61.1058C309.486 60.8885 309.264 60.7095 308.983 60.5689C308.702 60.4283 308.342 60.358 307.903 60.358C307.302 60.358 306.801 60.4964 306.401 60.7734C306.004 61.0462 305.806 61.3935 305.806 61.8153C305.806 62.1903 305.943 62.4865 306.215 62.7038C306.488 62.9212 306.914 63.1023 307.494 63.2472L308.951 63.6051C309.829 63.8182 310.483 64.1442 310.914 64.5831C311.344 65.0178 311.559 65.5781 311.559 66.2642C311.559 66.8267 311.397 67.3295 311.073 67.7727C310.754 68.2159 310.306 68.5653 309.731 68.821C309.156 69.0767 308.487 69.2045 307.724 69.2045C306.722 69.2045 305.894 68.9872 305.237 68.5526C304.581 68.1179 304.166 67.483 303.991 66.6477L305.423 66.2898C305.559 66.8182 305.817 67.2145 306.196 67.4787C306.58 67.7429 307.08 67.875 307.698 67.875C308.401 67.875 308.96 67.7259 309.373 67.4276C309.791 67.125 309.999 66.7628 309.999 66.3409C309.999 66 309.88 65.7145 309.642 65.4844C309.403 65.25 309.036 65.0753 308.542 64.9602L306.906 64.5767C306.007 64.3636 305.346 64.0334 304.924 63.5859C304.507 63.1342 304.298 62.5696 304.298 61.892C304.298 61.3381 304.453 60.848 304.764 60.4219C305.08 59.9957 305.508 59.6612 306.049 59.4183C306.595 59.1754 307.213 59.054 307.903 59.054C308.874 59.054 309.637 59.267 310.191 59.6932C310.749 60.1193 311.146 60.6818 311.38 61.3807ZM317.946 69.2045C317 69.2045 316.184 68.9957 315.498 68.5781C314.816 68.1562 314.29 67.5682 313.919 66.8139C313.553 66.0554 313.37 65.1733 313.37 64.1676C313.37 63.1619 313.553 62.2756 313.919 61.5085C314.29 60.7372 314.806 60.1364 315.466 59.706C316.131 59.2713 316.907 59.054 317.793 59.054C318.304 59.054 318.809 59.1392 319.308 59.3097C319.806 59.4801 320.26 59.7571 320.669 60.1406C321.078 60.5199 321.404 61.0227 321.647 61.6491C321.89 62.2756 322.012 63.0469 322.012 63.9631V64.6023H314.444V63.2983H320.478C320.478 62.7443 320.367 62.25 320.145 61.8153C319.928 61.3807 319.617 61.0376 319.212 60.7862C318.811 60.5348 318.338 60.4091 317.793 60.4091C317.192 60.4091 316.672 60.5582 316.233 60.8565C315.799 61.1506 315.464 61.5341 315.23 62.0071C314.995 62.4801 314.878 62.9872 314.878 63.5284V64.3977C314.878 65.1392 315.006 65.7678 315.262 66.2834C315.522 66.7947 315.882 67.1847 316.342 67.4531C316.802 67.7173 317.337 67.8494 317.946 67.8494C318.343 67.8494 318.701 67.794 319.02 67.6832C319.344 67.5682 319.623 67.3977 319.858 67.1719C320.092 66.9418 320.273 66.6562 320.401 66.3153L321.858 66.7244C321.705 67.2188 321.447 67.6534 321.085 68.0284C320.723 68.3991 320.275 68.6889 319.743 68.8977C319.21 69.1023 318.611 69.2045 317.946 69.2045ZM328.295 69.2045C327.375 69.2045 326.582 68.9872 325.917 68.5526C325.252 68.1179 324.741 67.5192 324.383 66.7564C324.025 65.9936 323.846 65.1222 323.846 64.142C323.846 63.1449 324.029 62.2649 324.396 61.5021C324.767 60.7351 325.282 60.1364 325.943 59.706C326.608 59.2713 327.383 59.054 328.27 59.054C328.96 59.054 329.582 59.1818 330.136 59.4375C330.69 59.6932 331.144 60.0511 331.498 60.5114C331.851 60.9716 332.071 61.5085 332.156 62.1222H330.647C330.532 61.6747 330.277 61.2784 329.88 60.9332C329.488 60.5838 328.96 60.4091 328.295 60.4091C327.707 60.4091 327.191 60.5625 326.748 60.8693C326.309 61.1719 325.966 61.6001 325.719 62.1541C325.476 62.7038 325.355 63.3494 325.355 64.0909C325.355 64.8494 325.474 65.5099 325.713 66.0724C325.956 66.6349 326.297 67.0717 326.735 67.3828C327.179 67.6939 327.699 67.8494 328.295 67.8494C328.687 67.8494 329.043 67.7812 329.363 67.6449C329.682 67.5085 329.953 67.3125 330.174 67.0568C330.396 66.8011 330.554 66.4943 330.647 66.1364H332.156C332.071 66.7159 331.86 67.2379 331.523 67.7024C331.191 68.1626 330.75 68.5291 330.2 68.8018C329.654 69.0703 329.02 69.2045 328.295 69.2045ZM338.35 69.2045C337.463 69.2045 336.686 68.9936 336.017 68.5717C335.352 68.1499 334.832 67.5597 334.457 66.8011C334.086 66.0426 333.901 65.1562 333.901 64.142C333.901 63.1193 334.086 62.2266 334.457 61.4638C334.832 60.701 335.352 60.1087 336.017 59.6868C336.686 59.2649 337.463 59.054 338.35 59.054C339.236 59.054 340.012 59.2649 340.676 59.6868C341.346 60.1087 341.865 60.701 342.236 61.4638C342.611 62.2266 342.799 63.1193 342.799 64.142C342.799 65.1562 342.611 66.0426 342.236 66.8011C341.865 67.5597 341.346 68.1499 340.676 68.5717C340.012 68.9936 339.236 69.2045 338.35 69.2045ZM338.35 67.8494C339.023 67.8494 339.577 67.6768 340.012 67.3317C340.446 66.9865 340.768 66.5327 340.977 65.9702C341.186 65.4077 341.29 64.7983 341.29 64.142C341.29 63.4858 341.186 62.8743 340.977 62.3075C340.768 61.7408 340.446 61.2827 340.012 60.9332C339.577 60.5838 339.023 60.4091 338.35 60.4091C337.676 60.4091 337.123 60.5838 336.688 60.9332C336.253 61.2827 335.931 61.7408 335.723 62.3075C335.514 62.8743 335.409 63.4858 335.409 64.142C335.409 64.7983 335.514 65.4077 335.723 65.9702C335.931 66.5327 336.253 66.9865 336.688 67.3317C337.123 67.6768 337.676 67.8494 338.35 67.8494ZM346.61 63.0938V69H345.101V59.1818H346.559V60.7159H346.687C346.917 60.2173 347.266 59.8168 347.735 59.5142C348.204 59.2074 348.809 59.054 349.55 59.054C350.215 59.054 350.797 59.1903 351.295 59.4631C351.794 59.7315 352.182 60.1406 352.459 60.6903C352.736 61.2358 352.874 61.9261 352.874 62.7614V69H351.366V62.8636C351.366 62.0923 351.165 61.4915 350.765 61.0611C350.364 60.6264 349.814 60.4091 349.116 60.4091C348.634 60.4091 348.204 60.5135 347.824 60.7223C347.449 60.9311 347.153 61.2358 346.936 61.6364C346.719 62.0369 346.61 62.5227 346.61 63.0938ZM359.338 69.2045C358.52 69.2045 357.798 68.9979 357.171 68.5845C356.545 68.1669 356.055 67.5788 355.701 66.8203C355.347 66.0575 355.17 65.1562 355.17 64.1165C355.17 63.0852 355.347 62.1903 355.701 61.4318C356.055 60.6733 356.547 60.0874 357.178 59.674C357.808 59.2607 358.537 59.054 359.364 59.054C360.003 59.054 360.508 59.1605 360.879 59.3736C361.254 59.5824 361.539 59.821 361.735 60.0895C361.935 60.3537 362.091 60.571 362.202 60.7415H362.33V55.9091H363.838V69H362.381V67.4915H362.202C362.091 67.6705 361.933 67.8963 361.729 68.169C361.524 68.4375 361.232 68.6783 360.853 68.8913C360.474 69.1001 359.969 69.2045 359.338 69.2045ZM359.543 67.8494C360.148 67.8494 360.659 67.6918 361.077 67.3764C361.494 67.0568 361.812 66.6158 362.029 66.0533C362.246 65.4865 362.355 64.8324 362.355 64.0909C362.355 63.358 362.249 62.7166 362.036 62.1669C361.822 61.6129 361.507 61.1825 361.089 60.8757C360.672 60.5646 360.156 60.4091 359.543 60.4091C358.903 60.4091 358.371 60.5732 357.945 60.9013C357.523 61.2251 357.205 61.6662 356.992 62.2244C356.783 62.7784 356.679 63.4006 356.679 64.0909C356.679 64.7898 356.786 65.4247 356.999 65.9957C357.216 66.5625 357.536 67.0142 357.957 67.3509C358.384 67.6832 358.912 67.8494 359.543 67.8494ZM373.765 61.3807L372.41 61.7642C372.325 61.5384 372.199 61.3189 372.033 61.1058C371.871 60.8885 371.649 60.7095 371.368 60.5689C371.087 60.4283 370.727 60.358 370.288 60.358C369.687 60.358 369.186 60.4964 368.786 60.7734C368.389 61.0462 368.191 61.3935 368.191 61.8153C368.191 62.1903 368.327 62.4865 368.6 62.7038C368.873 62.9212 369.299 63.1023 369.879 63.2472L371.336 63.6051C372.214 63.8182 372.868 64.1442 373.298 64.5831C373.729 65.0178 373.944 65.5781 373.944 66.2642C373.944 66.8267 373.782 67.3295 373.458 67.7727C373.138 68.2159 372.691 68.5653 372.116 68.821C371.54 69.0767 370.871 69.2045 370.109 69.2045C369.107 69.2045 368.278 68.9872 367.622 68.5526C366.966 68.1179 366.55 67.483 366.376 66.6477L367.808 66.2898C367.944 66.8182 368.202 67.2145 368.581 67.4787C368.964 67.7429 369.465 67.875 370.083 67.875C370.786 67.875 371.344 67.7259 371.758 67.4276C372.175 67.125 372.384 66.7628 372.384 66.3409C372.384 66 372.265 65.7145 372.026 65.4844C371.788 65.25 371.421 65.0753 370.927 64.9602L369.29 64.5767C368.391 64.3636 367.731 64.0334 367.309 63.5859C366.891 63.1342 366.683 62.5696 366.683 61.892C366.683 61.3381 366.838 60.848 367.149 60.4219C367.464 59.9957 367.893 59.6612 368.434 59.4183C368.979 59.1754 369.597 59.054 370.288 59.054C371.259 59.054 372.022 59.267 372.576 59.6932C373.134 60.1193 373.531 60.6818 373.765 61.3807ZM377.314 69.1023C376.999 69.1023 376.728 68.9893 376.502 68.7635C376.276 68.5376 376.164 68.267 376.164 67.9517C376.164 67.6364 376.276 67.3658 376.502 67.1399C376.728 66.9141 376.999 66.8011 377.314 66.8011C377.629 66.8011 377.9 66.9141 378.126 67.1399C378.352 67.3658 378.465 67.6364 378.465 67.9517C378.465 68.1605 378.411 68.3523 378.305 68.527C378.203 68.7017 378.064 68.8423 377.889 68.9489C377.719 69.0511 377.527 69.1023 377.314 69.1023Z" fill="#010C0B"/>
</g>
<defs>
<filter id="filter0_d_904_299" x="0" y="0" width="416" height="122" filterUnits="userSpaceOnUse" color-interpolation-filters="sRGB">
<feFlood flood-opacity="0" result="BackgroundImageFix"/>
<feColorMatrix in="SourceAlpha" type="matrix" values="0 0 0 0 0 0 0 0 0 0 0 0 0 0 0 0 0 0 127 0" result="hardAlpha"/>
<feOffset dx="3" dy="10"/>
<feGaussianBlur stdDeviation="12"/>
<feComposite in2="hardAlpha" operator="out"/>
<feColorMatrix type="matrix" values="0 0 0 0 0 0 0 0 0 0 0 0 0 0 0 0 0 0 0.12 0"/>
<feBlend mode="normal" in2="BackgroundImageFix" result="effect1_dropShadow_904_299"/>
<feBlend mode="normal" in="SourceGraphic" in2="effect1_dropShadow_904_299" result="shape"/>
</filter>
</defs>
</svg>
