<svg width="416" height="122" viewBox="0 0 416 122" fill="none" xmlns="http://www.w3.org/2000/svg">
<g filter="url(#filter0_d_904_308)">
<rect width="368" height="74" transform="translate(24 12)" fill="#F9FEF0"/>
<path d="M66.3198 48.6128L66.3198 40.9732L81.9495 40.9732L81.9495 48.6128L66.3198 48.6128Z" fill="#BEF264"/>
<path d="M81.9495 40.9732L66.3198 40.9732L66.3198 24.8453C74.9519 24.8453 81.9495 32.4266 81.9495 40.9732Z" fill="#BEF264"/>
<path d="M81.9495 49.7754L81.9495 57.4149L66.3198 57.4149L66.3198 49.7754L81.9495 49.7754Z" fill="#BEF264"/>
<path d="M66.3198 57.4149L81.9495 57.4149L81.9495 73.1554C73.3174 73.1554 65.8677 66.6968 66.3198 57.4149Z" fill="#BEF264"/>
<path d="M99 48.6128L99 40.9732L83.4995 40.9732L83.4995 48.6128L99 48.6128Z" fill="#BEF264"/>
<path d="M83.4995 40.9732L99 40.9732L99 24.8453C90.4393 24.8453 83.4995 32.4266 83.4995 40.9732Z" fill="#BEF264"/>
<path d="M39 48.1607H40.2271L41.3897 46.9982L43.1335 51.0025L46.169 33.3706L48.3003 60.6257L51.0129 44.0272L52.24 48.1607H61.4112L64.8988 45.0606" stroke="#BEF264" stroke-width="1.03337" stroke-linecap="round" stroke-linejoin="round"/>
<path d="M51.0774 62.4342C51.0774 55.4429 56.7449 49.7754 63.7362 49.7754H65.2862V58.9465C65.2862 66.7939 58.9247 73.1554 51.0774 73.1554V62.4342Z" fill="#042F2E"/>
<path d="M83.4995 49.9043H99V50.8085C99 55.0888 95.5301 58.5588 91.2498 58.5588C86.9694 58.5588 83.4995 55.0888 83.4995 50.8085V49.9043Z" fill="#042F2E"/>
<path d="M123.473 45L125.646 31.9091H134.033L133.7 33.897H127.685L127.097 37.451H132.537L132.205 39.4389H126.765L125.844 45H123.473ZM137.505 45.1918C136.538 45.1918 135.732 44.9787 135.089 44.5526C134.45 44.1264 134 43.5277 133.74 42.7564C133.48 41.9851 133.433 41.0902 133.6 40.0717C133.766 39.0661 134.098 38.1861 134.597 37.4318C135.1 36.6776 135.732 36.0937 136.495 35.6804C137.262 35.2628 138.121 35.054 139.071 35.054C140.039 35.054 140.842 35.2692 141.481 35.6996C142.12 36.1257 142.57 36.7244 142.83 37.4957C143.094 38.267 143.143 39.1662 142.977 40.1932C142.815 41.1946 142.48 42.0703 141.973 42.8203C141.47 43.5703 140.838 44.1541 140.075 44.5717C139.312 44.9851 138.455 45.1918 137.505 45.1918ZM137.697 43.3381C138.234 43.3381 138.705 43.1932 139.11 42.9034C139.519 42.6094 139.853 42.2152 140.113 41.7209C140.377 41.2223 140.561 40.6683 140.663 40.0589C140.757 39.4709 140.759 38.9382 140.669 38.4609C140.58 37.9794 140.388 37.598 140.094 37.3168C139.804 37.0312 139.401 36.8885 138.886 36.8885C138.349 36.8885 137.874 37.0376 137.46 37.3359C137.051 37.63 136.717 38.0263 136.457 38.5249C136.197 39.0192 136.018 39.571 135.92 40.1804C135.822 40.7685 135.818 41.3011 135.907 41.7784C135.997 42.2557 136.188 42.6349 136.482 42.9162C136.776 43.1974 137.181 43.3381 137.697 43.3381ZM144.148 45L145.784 35.1818H148.028L147.753 36.8182H147.855C148.124 36.2514 148.503 35.8146 148.993 35.5078C149.488 35.1967 150.016 35.0412 150.578 35.0412C150.711 35.0412 150.853 35.0476 151.007 35.0604C151.16 35.0689 151.292 35.0838 151.403 35.1051L151.045 37.2337C150.947 37.1996 150.794 37.1697 150.585 37.1442C150.38 37.1143 150.178 37.0994 149.978 37.0994C149.556 37.0994 149.164 37.1911 148.801 37.3743C148.444 37.5533 148.141 37.8026 147.894 38.1222C147.647 38.4418 147.487 38.8104 147.414 39.228L146.462 45H144.148ZM160.369 45H155.869L158.043 31.9091H162.504C163.804 31.9091 164.882 32.1776 165.739 32.7145C166.595 33.2514 167.196 34.0185 167.541 35.0156C167.891 36.0085 167.95 37.1932 167.72 38.5696C167.499 39.9162 167.062 41.0689 166.41 42.0277C165.758 42.9865 164.921 43.7216 163.898 44.233C162.875 44.7443 161.699 45 160.369 45ZM158.58 42.9482H160.491C161.399 42.9482 162.189 42.7756 162.862 42.4304C163.54 42.081 164.092 41.5632 164.518 40.8771C164.948 40.1868 165.247 39.3303 165.413 38.3075C165.579 37.3274 165.568 36.5178 165.381 35.8786C165.193 35.2351 164.829 34.7557 164.288 34.4403C163.751 34.1207 163.039 33.9609 162.153 33.9609H160.069L158.58 42.9482ZM173.118 45.1918C172.151 45.1918 171.346 44.9787 170.702 44.5526C170.063 44.1264 169.613 43.5277 169.354 42.7564C169.094 41.9851 169.047 41.0902 169.213 40.0717C169.379 39.0661 169.711 38.1861 170.21 37.4318C170.713 36.6776 171.346 36.0937 172.108 35.6804C172.876 35.2628 173.734 35.054 174.684 35.054C175.652 35.054 176.455 35.2692 177.094 35.6996C177.733 36.1257 178.183 36.7244 178.443 37.4957C178.707 38.267 178.756 39.1662 178.59 40.1932C178.428 41.1946 178.094 42.0703 177.586 42.8203C177.084 43.5703 176.451 44.1541 175.688 44.5717C174.925 44.9851 174.069 45.1918 173.118 45.1918ZM173.31 43.3381C173.847 43.3381 174.318 43.1932 174.723 42.9034C175.132 42.6094 175.466 42.2152 175.726 41.7209C175.991 41.2223 176.174 40.6683 176.276 40.0589C176.37 39.4709 176.372 38.9382 176.282 38.4609C176.193 37.9794 176.001 37.598 175.707 37.3168C175.417 37.0312 175.015 36.8885 174.499 36.8885C173.962 36.8885 173.487 37.0376 173.074 37.3359C172.665 37.63 172.33 38.0263 172.07 38.5249C171.81 39.0192 171.631 39.571 171.533 40.1804C171.435 40.7685 171.431 41.3011 171.52 41.7784C171.61 42.2557 171.802 42.6349 172.096 42.9162C172.39 43.1974 172.795 43.3381 173.31 43.3381ZM184.018 45.1918C183.038 45.1918 182.233 44.9766 181.602 44.5462C180.972 44.1158 180.531 43.5213 180.279 42.7628C180.032 42 179.991 41.1222 180.158 40.1293C180.32 39.1321 180.654 38.2521 181.161 37.4893C181.673 36.7223 182.316 36.1257 183.092 35.6996C183.867 35.2692 184.734 35.054 185.693 35.054C186.49 35.054 187.17 35.201 187.732 35.495C188.299 35.7848 188.721 36.196 188.998 36.7287C189.279 37.2571 189.388 37.875 189.324 38.5824H187.106C187.097 38.1094 186.95 37.7152 186.665 37.3999C186.379 37.0803 185.962 36.9205 185.412 36.9205C184.935 36.9205 184.496 37.0483 184.095 37.304C183.695 37.5554 183.356 37.9176 183.079 38.3906C182.802 38.8636 182.61 39.4304 182.504 40.0909C182.393 40.7599 182.395 41.3352 182.51 41.8168C182.629 42.294 182.844 42.6626 183.156 42.9226C183.471 43.1783 183.869 43.3061 184.351 43.3061C184.692 43.3061 185.009 43.2422 185.303 43.1143C185.597 42.9822 185.855 42.7926 186.077 42.5455C186.303 42.2983 186.479 41.9979 186.607 41.6442H188.819C188.644 42.3388 188.333 42.9545 187.886 43.4915C187.442 44.0241 186.893 44.4418 186.237 44.7443C185.58 45.0426 184.841 45.1918 184.018 45.1918ZM196.689 35.1818L196.389 36.9716H190.751L191.045 35.1818H196.689ZM192.822 32.8295H195.136L193.602 42.0469C193.555 42.358 193.563 42.5966 193.627 42.7628C193.695 42.9247 193.804 43.0355 193.953 43.0952C194.107 43.1548 194.279 43.1847 194.471 43.1847C194.612 43.1847 194.744 43.174 194.867 43.1527C194.991 43.1271 195.089 43.108 195.161 43.0952L195.264 44.9041C195.123 44.9467 194.933 44.9936 194.695 45.0447C194.46 45.0959 194.179 45.1257 193.851 45.1342C193.263 45.147 192.752 45.0575 192.317 44.8658C191.887 44.6697 191.571 44.3693 191.371 43.9645C191.175 43.5554 191.13 43.044 191.237 42.4304L192.822 32.8295ZM201.191 45.1918C200.223 45.1918 199.418 44.9787 198.775 44.5526C198.135 44.1264 197.686 43.5277 197.426 42.7564C197.166 41.9851 197.119 41.0902 197.285 40.0717C197.451 39.0661 197.784 38.1861 198.282 37.4318C198.785 36.6776 199.418 36.0937 200.181 35.6804C200.948 35.2628 201.806 35.054 202.757 35.054C203.724 35.054 204.527 35.2692 205.167 35.6996C205.806 36.1257 206.255 36.7244 206.515 37.4957C206.779 38.267 206.828 39.1662 206.662 40.1932C206.5 41.1946 206.166 42.0703 205.659 42.8203C205.156 43.5703 204.523 44.1541 203.76 44.5717C202.998 44.9851 202.141 45.1918 201.191 45.1918ZM201.382 43.3381C201.919 43.3381 202.39 43.1932 202.795 42.9034C203.204 42.6094 203.539 42.2152 203.799 41.7209C204.063 41.2223 204.246 40.6683 204.348 40.0589C204.442 39.4709 204.444 38.9382 204.355 38.4609C204.265 37.9794 204.074 37.598 203.779 37.3168C203.49 37.0312 203.087 36.8885 202.571 36.8885C202.034 36.8885 201.559 37.0376 201.146 37.3359C200.737 37.63 200.402 38.0263 200.142 38.5249C199.882 39.0192 199.703 39.571 199.605 40.1804C199.507 40.7685 199.503 41.3011 199.593 41.7784C199.682 42.2557 199.874 42.6349 200.168 42.9162C200.462 43.1974 200.867 43.3381 201.382 43.3381ZM207.834 45L209.47 35.1818H211.714L211.439 36.8182H211.541C211.809 36.2514 212.189 35.8146 212.679 35.5078C213.173 35.1967 213.702 35.0412 214.264 35.0412C214.396 35.0412 214.539 35.0476 214.692 35.0604C214.846 35.0689 214.978 35.0838 215.089 35.1051L214.731 37.2337C214.633 37.1996 214.479 37.1697 214.27 37.1442C214.066 37.1143 213.863 37.0994 213.663 37.0994C213.241 37.0994 212.849 37.1911 212.487 37.3743C212.129 37.5533 211.827 37.8026 211.579 38.1222C211.332 38.4418 211.172 38.8104 211.1 39.228L210.148 45H207.834ZM223.943 37.777L221.815 38.0071C221.793 37.7898 221.727 37.5874 221.616 37.3999C221.506 37.2124 221.339 37.0632 221.118 36.9524C220.901 36.8374 220.619 36.7798 220.274 36.7798C219.771 36.7798 219.33 36.8928 218.951 37.1186C218.572 37.3445 218.357 37.6342 218.305 37.9879C218.259 38.2521 218.322 38.4673 218.497 38.6335C218.672 38.7997 218.996 38.9403 219.469 39.0554L221.092 39.4134C221.987 39.6136 222.631 39.9375 223.023 40.3849C223.419 40.8324 223.558 41.4183 223.438 42.1428C223.336 42.7479 223.072 43.2805 222.646 43.7408C222.219 44.1967 221.674 44.5526 221.009 44.8082C220.349 45.0639 219.616 45.1918 218.81 45.1918C217.587 45.1918 216.646 44.9382 215.985 44.4311C215.329 43.9197 215.003 43.2166 215.007 42.3217L217.283 42.1044C217.308 42.5476 217.464 42.8821 217.749 43.108C218.035 43.3295 218.431 43.4425 218.938 43.4467C219.509 43.451 219.991 43.3317 220.383 43.0888C220.779 42.8416 221.003 42.5412 221.054 42.1875C221.097 41.9233 221.031 41.7081 220.856 41.5419C220.685 41.3757 220.381 41.2436 219.942 41.1456L218.331 40.794C217.419 40.5937 216.769 40.255 216.381 39.7777C215.998 39.2962 215.868 38.6889 215.991 37.956C216.094 37.3594 216.343 36.8459 216.739 36.4155C217.14 35.9808 217.653 35.6463 218.28 35.4119C218.906 35.1733 219.607 35.054 220.383 35.054C221.55 35.054 222.43 35.299 223.023 35.7891C223.615 36.2791 223.922 36.9418 223.943 37.777ZM123.869 55.3153V53.9091H133.688V55.3153H129.571V67H127.986V55.3153H123.869ZM137.483 67.2301C136.861 67.2301 136.296 67.1129 135.789 66.8786C135.282 66.6399 134.879 66.2969 134.581 65.8494C134.282 65.3977 134.133 64.8523 134.133 64.2131C134.133 63.6506 134.244 63.1946 134.466 62.8452C134.687 62.4915 134.983 62.2145 135.354 62.0142C135.725 61.8139 136.134 61.6648 136.581 61.5668C137.033 61.4645 137.487 61.3835 137.943 61.3239C138.54 61.2472 139.023 61.1896 139.394 61.1513C139.769 61.1087 140.042 61.0384 140.212 60.9403C140.387 60.8423 140.474 60.6719 140.474 60.429V60.3778C140.474 59.7472 140.302 59.2571 139.956 58.9077C139.616 58.5582 139.098 58.3835 138.403 58.3835C137.683 58.3835 137.118 58.5412 136.709 58.8565C136.3 59.1719 136.013 59.5085 135.846 59.8665L134.415 59.3551C134.67 58.7585 135.011 58.294 135.437 57.9616C135.868 57.625 136.336 57.3906 136.844 57.2585C137.355 57.1222 137.858 57.054 138.352 57.054C138.667 57.054 139.03 57.0923 139.439 57.169C139.852 57.2415 140.251 57.3928 140.634 57.6229C141.022 57.853 141.344 58.2003 141.599 58.6648C141.855 59.1293 141.983 59.7514 141.983 60.5312V67H140.474V65.6705H140.398C140.295 65.8835 140.125 66.1115 139.886 66.3544C139.648 66.5973 139.33 66.804 138.934 66.9744C138.537 67.1449 138.054 67.2301 137.483 67.2301ZM137.713 65.875C138.309 65.875 138.812 65.7578 139.221 65.5234C139.635 65.2891 139.946 64.9865 140.155 64.6158C140.368 64.245 140.474 63.8551 140.474 63.446V62.0653C140.41 62.142 140.27 62.2124 140.052 62.2763C139.839 62.3359 139.592 62.3892 139.311 62.4361C139.034 62.4787 138.763 62.517 138.499 62.5511C138.239 62.581 138.028 62.6065 137.866 62.6278C137.474 62.679 137.108 62.7621 136.767 62.8771C136.43 62.9879 136.157 63.1562 135.949 63.3821C135.744 63.6037 135.642 63.9062 135.642 64.2898C135.642 64.8139 135.836 65.2102 136.224 65.4787C136.616 65.7429 137.112 65.875 137.713 65.875ZM146.142 63.4205L146.117 61.554H146.424L150.719 57.1818H152.586L148.009 61.8097H147.881L146.142 63.4205ZM144.736 67V53.9091H146.245V67H144.736ZM150.975 67L147.14 62.142L148.213 61.0938L152.892 67H150.975ZM158.239 67.2045C157.293 67.2045 156.477 66.9957 155.791 66.5781C155.109 66.1562 154.583 65.5682 154.212 64.8139C153.846 64.0554 153.663 63.1733 153.663 62.1676C153.663 61.1619 153.846 60.2756 154.212 59.5085C154.583 58.7372 155.099 58.1364 155.759 57.706C156.424 57.2713 157.2 57.054 158.086 57.054C158.597 57.054 159.102 57.1392 159.601 57.3097C160.099 57.4801 160.553 57.7571 160.962 58.1406C161.371 58.5199 161.697 59.0227 161.94 59.6491C162.183 60.2756 162.305 61.0469 162.305 61.9631V62.6023H154.737V61.2983H160.771C160.771 60.7443 160.66 60.25 160.438 59.8153C160.221 59.3807 159.91 59.0376 159.505 58.7862C159.104 58.5348 158.631 58.4091 158.086 58.4091C157.485 58.4091 156.965 58.5582 156.526 58.8565C156.092 59.1506 155.757 59.5341 155.523 60.0071C155.288 60.4801 155.171 60.9872 155.171 61.5284V62.3977C155.171 63.1392 155.299 63.7678 155.555 64.2834C155.815 64.7947 156.175 65.1847 156.635 65.4531C157.095 65.7173 157.63 65.8494 158.239 65.8494C158.636 65.8494 158.994 65.794 159.313 65.6832C159.637 65.5682 159.916 65.3977 160.151 65.1719C160.385 64.9418 160.566 64.6562 160.694 64.3153L162.151 64.7244C161.998 65.2188 161.74 65.6534 161.378 66.0284C161.016 66.3991 160.568 66.6889 160.036 66.8977C159.503 67.1023 158.904 67.2045 158.239 67.2045ZM173.651 67.2045C172.73 67.2045 171.938 66.9872 171.273 66.5526C170.608 66.1179 170.097 65.5192 169.739 64.7564C169.381 63.9936 169.202 63.1222 169.202 62.142C169.202 61.1449 169.385 60.2649 169.751 59.5021C170.122 58.7351 170.638 58.1364 171.298 57.706C171.963 57.2713 172.739 57.054 173.625 57.054C174.315 57.054 174.938 57.1818 175.491 57.4375C176.045 57.6932 176.499 58.0511 176.853 58.5114C177.207 58.9716 177.426 59.5085 177.511 60.1222H176.003C175.888 59.6747 175.632 59.2784 175.236 58.9332C174.844 58.5838 174.315 58.4091 173.651 58.4091C173.063 58.4091 172.547 58.5625 172.104 58.8693C171.665 59.1719 171.322 59.6001 171.075 60.1541C170.832 60.7038 170.71 61.3494 170.71 62.0909C170.71 62.8494 170.83 63.5099 171.068 64.0724C171.311 64.6349 171.652 65.0717 172.091 65.3828C172.534 65.6939 173.054 65.8494 173.651 65.8494C174.043 65.8494 174.398 65.7812 174.718 65.6449C175.038 65.5085 175.308 65.3125 175.53 65.0568C175.751 64.8011 175.909 64.4943 176.003 64.1364H177.511C177.426 64.7159 177.215 65.2379 176.879 65.7024C176.546 66.1626 176.105 66.5291 175.555 66.8018C175.01 67.0703 174.375 67.2045 173.651 67.2045ZM183.705 67.2045C182.819 67.2045 182.041 66.9936 181.372 66.5717C180.707 66.1499 180.188 65.5597 179.812 64.8011C179.442 64.0426 179.256 63.1562 179.256 62.142C179.256 61.1193 179.442 60.2266 179.812 59.4638C180.188 58.701 180.707 58.1087 181.372 57.6868C182.041 57.2649 182.819 57.054 183.705 57.054C184.592 57.054 185.367 57.2649 186.032 57.6868C186.701 58.1087 187.221 58.701 187.592 59.4638C187.967 60.2266 188.154 61.1193 188.154 62.142C188.154 63.1562 187.967 64.0426 187.592 64.8011C187.221 65.5597 186.701 66.1499 186.032 66.5717C185.367 66.9936 184.592 67.2045 183.705 67.2045ZM183.705 65.8494C184.379 65.8494 184.933 65.6768 185.367 65.3317C185.802 64.9865 186.124 64.5327 186.332 63.9702C186.541 63.4077 186.646 62.7983 186.646 62.142C186.646 61.4858 186.541 60.8743 186.332 60.3075C186.124 59.7408 185.802 59.2827 185.367 58.9332C184.933 58.5838 184.379 58.4091 183.705 58.4091C183.032 58.4091 182.478 58.5838 182.043 58.9332C181.609 59.2827 181.287 59.7408 181.078 60.3075C180.869 60.8743 180.765 61.4858 180.765 62.142C180.765 62.7983 180.869 63.4077 181.078 63.9702C181.287 64.5327 181.609 64.9865 182.043 65.3317C182.478 65.6768 183.032 65.8494 183.705 65.8494ZM191.965 61.0938V67H190.457V57.1818H191.914V58.7159H192.042C192.272 58.2173 192.622 57.8168 193.09 57.5142C193.559 57.2074 194.164 57.054 194.906 57.054C195.57 57.054 196.152 57.1903 196.651 57.4631C197.149 57.7315 197.537 58.1406 197.814 58.6903C198.091 59.2358 198.23 59.9261 198.23 60.7614V67H196.721V60.8636C196.721 60.0923 196.521 59.4915 196.12 59.0611C195.72 58.6264 195.17 58.4091 194.471 58.4091C193.99 58.4091 193.559 58.5135 193.18 58.7223C192.805 58.9311 192.509 59.2358 192.291 59.6364C192.074 60.0369 191.965 60.5227 191.965 61.0938ZM205.256 57.1818V58.4602H200.168V57.1818H205.256ZM201.651 54.8295H203.159V64.1875C203.159 64.6136 203.221 64.9332 203.345 65.1463C203.473 65.3551 203.635 65.4957 203.831 65.5682C204.031 65.6364 204.242 65.6705 204.463 65.6705C204.63 65.6705 204.766 65.6619 204.873 65.6449C204.979 65.6236 205.064 65.6065 205.128 65.5938L205.435 66.9489C205.333 66.9872 205.19 67.0256 205.007 67.0639C204.824 67.1065 204.591 67.1278 204.31 67.1278C203.884 67.1278 203.466 67.0362 203.057 66.853C202.652 66.6697 202.316 66.3906 202.047 66.0156C201.783 65.6406 201.651 65.1676 201.651 64.5966V54.8295ZM207.525 67V57.1818H208.983V58.6648H209.085C209.264 58.179 209.588 57.7848 210.056 57.4822C210.525 57.1797 211.054 57.0284 211.642 57.0284C211.752 57.0284 211.891 57.0305 212.057 57.0348C212.223 57.0391 212.349 57.0455 212.434 57.054V58.5881C212.383 58.5753 212.266 58.5561 212.083 58.5305C211.904 58.5007 211.714 58.4858 211.514 58.4858C211.037 58.4858 210.61 58.5859 210.235 58.7862C209.865 58.9822 209.571 59.255 209.353 59.6044C209.14 59.9496 209.034 60.3437 209.034 60.7869V67H207.525ZM217.912 67.2045C217.026 67.2045 216.248 66.9936 215.579 66.5717C214.914 66.1499 214.395 65.5597 214.02 64.8011C213.649 64.0426 213.463 63.1562 213.463 62.142C213.463 61.1193 213.649 60.2266 214.02 59.4638C214.395 58.701 214.914 58.1087 215.579 57.6868C216.248 57.2649 217.026 57.054 217.912 57.054C218.799 57.054 219.574 57.2649 220.239 57.6868C220.908 58.1087 221.428 58.701 221.799 59.4638C222.174 60.2266 222.361 61.1193 222.361 62.142C222.361 63.1562 222.174 64.0426 221.799 64.8011C221.428 65.5597 220.908 66.1499 220.239 66.5717C219.574 66.9936 218.799 67.2045 217.912 67.2045ZM217.912 65.8494C218.586 65.8494 219.14 65.6768 219.574 65.3317C220.009 64.9865 220.331 64.5327 220.539 63.9702C220.748 63.4077 220.853 62.7983 220.853 62.142C220.853 61.4858 220.748 60.8743 220.539 60.3075C220.331 59.7408 220.009 59.2827 219.574 58.9332C219.14 58.5838 218.586 58.4091 217.912 58.4091C217.239 58.4091 216.685 58.5838 216.25 58.9332C215.816 59.2827 215.494 59.7408 215.285 60.3075C215.076 60.8743 214.972 61.4858 214.972 62.142C214.972 62.7983 215.076 63.4077 215.285 63.9702C215.494 64.5327 215.816 64.9865 216.25 65.3317C216.685 65.6768 217.239 65.8494 217.912 65.8494ZM226.172 53.9091V67H224.664V53.9091H226.172ZM237.987 67.2045C237.1 67.2045 236.322 66.9936 235.653 66.5717C234.989 66.1499 234.469 65.5597 234.094 64.8011C233.723 64.0426 233.538 63.1562 233.538 62.142C233.538 61.1193 233.723 60.2266 234.094 59.4638C234.469 58.701 234.989 58.1087 235.653 57.6868C236.322 57.2649 237.1 57.054 237.987 57.054C238.873 57.054 239.648 57.2649 240.313 57.6868C240.982 58.1087 241.502 58.701 241.873 59.4638C242.248 60.2266 242.435 61.1193 242.435 62.142C242.435 63.1562 242.248 64.0426 241.873 64.8011C241.502 65.5597 240.982 66.1499 240.313 66.5717C239.648 66.9936 238.873 67.2045 237.987 67.2045ZM237.987 65.8494C238.66 65.8494 239.214 65.6768 239.648 65.3317C240.083 64.9865 240.405 64.5327 240.614 63.9702C240.822 63.4077 240.927 62.7983 240.927 62.142C240.927 61.4858 240.822 60.8743 240.614 60.3075C240.405 59.7408 240.083 59.2827 239.648 58.9332C239.214 58.5838 238.66 58.4091 237.987 58.4091C237.313 58.4091 236.759 58.5838 236.325 58.9332C235.89 59.2827 235.568 59.7408 235.359 60.3075C235.151 60.8743 235.046 61.4858 235.046 62.142C235.046 62.7983 235.151 63.4077 235.359 63.9702C235.568 64.5327 235.89 64.9865 236.325 65.3317C236.759 65.6768 237.313 65.8494 237.987 65.8494ZM249.11 57.1818V58.4602H243.818V57.1818H249.11ZM245.403 67V55.8267C245.403 55.2642 245.535 54.7955 245.799 54.4205C246.063 54.0455 246.406 53.7642 246.828 53.5767C247.25 53.3892 247.695 53.2955 248.164 53.2955C248.535 53.2955 248.838 53.3253 249.072 53.3849C249.306 53.4446 249.481 53.5 249.596 53.5511L249.161 54.8551C249.085 54.8295 248.978 54.7976 248.842 54.7592C248.71 54.7209 248.535 54.7017 248.318 54.7017C247.819 54.7017 247.459 54.8274 247.237 55.0788C247.02 55.3303 246.911 55.6989 246.911 56.1847V67H245.403ZM257.259 70.6818C257.003 70.6818 256.775 70.6605 256.575 70.6179C256.374 70.5795 256.236 70.5412 256.159 70.5028L256.543 69.1733C256.909 69.267 257.233 69.3011 257.514 69.2756C257.795 69.25 258.045 69.1243 258.262 68.8984C258.484 68.6768 258.686 68.3168 258.869 67.8182L259.151 67.0511L255.52 57.1818H257.156L259.866 65.0057H259.969L262.679 57.1818H264.315L260.148 68.4318C259.96 68.9389 259.728 69.3587 259.451 69.6911C259.174 70.0277 258.852 70.277 258.486 70.4389C258.124 70.6009 257.714 70.6818 257.259 70.6818ZM269.944 67.2045C269.057 67.2045 268.279 66.9936 267.61 66.5717C266.946 66.1499 266.426 65.5597 266.051 64.8011C265.68 64.0426 265.495 63.1562 265.495 62.142C265.495 61.1193 265.68 60.2266 266.051 59.4638C266.426 58.701 266.946 58.1087 267.61 57.6868C268.279 57.2649 269.057 57.054 269.944 57.054C270.83 57.054 271.605 57.2649 272.27 57.6868C272.939 58.1087 273.459 58.701 273.83 59.4638C274.205 60.2266 274.392 61.1193 274.392 62.142C274.392 63.1562 274.205 64.0426 273.83 64.8011C273.459 65.5597 272.939 66.1499 272.27 66.5717C271.605 66.9936 270.83 67.2045 269.944 67.2045ZM269.944 65.8494C270.617 65.8494 271.171 65.6768 271.605 65.3317C272.04 64.9865 272.362 64.5327 272.571 63.9702C272.779 63.4077 272.884 62.7983 272.884 62.142C272.884 61.4858 272.779 60.8743 272.571 60.3075C272.362 59.7408 272.04 59.2827 271.605 58.9332C271.171 58.5838 270.617 58.4091 269.944 58.4091C269.27 58.4091 268.716 58.5838 268.282 58.9332C267.847 59.2827 267.525 59.7408 267.316 60.3075C267.108 60.8743 267.003 61.4858 267.003 62.142C267.003 62.7983 267.108 63.4077 267.316 63.9702C267.525 64.5327 267.847 64.9865 268.282 65.3317C268.716 65.6768 269.27 65.8494 269.944 65.8494ZM282.883 62.9858V57.1818H284.391V67H282.883V65.3381H282.78C282.55 65.8366 282.192 66.2607 281.706 66.6101C281.221 66.9553 280.607 67.1278 279.866 67.1278C279.252 67.1278 278.706 66.9936 278.229 66.7251C277.752 66.4524 277.377 66.0433 277.104 65.4979C276.831 64.9482 276.695 64.2557 276.695 63.4205V57.1818H278.204V63.3182C278.204 64.0341 278.404 64.6051 278.805 65.0312C279.209 65.4574 279.725 65.6705 280.351 65.6705C280.726 65.6705 281.108 65.5746 281.496 65.3828C281.888 65.1911 282.216 64.897 282.48 64.5007C282.748 64.1044 282.883 63.5994 282.883 62.9858ZM287.154 67V57.1818H288.612V58.6648H288.714C288.893 58.179 289.217 57.7848 289.685 57.4822C290.154 57.1797 290.683 57.0284 291.271 57.0284C291.381 57.0284 291.52 57.0305 291.686 57.0348C291.852 57.0391 291.978 57.0455 292.063 57.054V58.5881C292.012 58.5753 291.895 58.5561 291.712 58.5305C291.533 58.5007 291.343 58.4858 291.143 58.4858C290.665 58.4858 290.239 58.5859 289.864 58.7862C289.494 58.9822 289.2 59.255 288.982 59.6044C288.769 59.9496 288.663 60.3437 288.663 60.7869V67H287.154ZM298.914 70.6818V57.1818H300.371V58.7415H300.55C300.661 58.571 300.814 58.3537 301.01 58.0895C301.211 57.821 301.496 57.5824 301.867 57.3736C302.242 57.1605 302.749 57.054 303.388 57.054C304.215 57.054 304.944 57.2607 305.574 57.674C306.205 58.0874 306.697 58.6733 307.051 59.4318C307.405 60.1903 307.581 61.0852 307.581 62.1165C307.581 63.1562 307.405 64.0575 307.051 64.8203C306.697 65.5788 306.207 66.1669 305.581 66.5845C304.954 66.9979 304.232 67.2045 303.414 67.2045C302.783 67.2045 302.278 67.1001 301.899 66.8913C301.52 66.6783 301.228 66.4375 301.023 66.169C300.819 65.8963 300.661 65.6705 300.55 65.4915H300.422V70.6818H298.914ZM300.397 62.0909C300.397 62.8324 300.506 63.4865 300.723 64.0533C300.94 64.6158 301.258 65.0568 301.675 65.3764C302.093 65.6918 302.604 65.8494 303.209 65.8494C303.84 65.8494 304.366 65.6832 304.788 65.3509C305.214 65.0142 305.534 64.5625 305.747 63.9957C305.964 63.4247 306.073 62.7898 306.073 62.0909C306.073 61.4006 305.966 60.7784 305.753 60.2244C305.545 59.6662 305.227 59.2251 304.801 58.9013C304.379 58.5732 303.849 58.4091 303.209 58.4091C302.596 58.4091 302.08 58.5646 301.662 58.8757C301.245 59.1825 300.93 59.6129 300.716 60.1669C300.503 60.7166 300.397 61.358 300.397 62.0909ZM309.883 67V57.1818H311.34V58.6648H311.442C311.621 58.179 311.945 57.7848 312.414 57.4822C312.883 57.1797 313.411 57.0284 313.999 57.0284C314.11 57.0284 314.248 57.0305 314.415 57.0348C314.581 57.0391 314.706 57.0455 314.792 57.054V58.5881C314.741 58.5753 314.623 58.5561 314.44 58.5305C314.261 58.5007 314.072 58.4858 313.871 58.4858C313.394 58.4858 312.968 58.5859 312.593 58.7862C312.222 58.9822 311.928 59.255 311.711 59.6044C311.498 59.9496 311.391 60.3437 311.391 60.7869V67H309.883ZM319.469 67.2301C318.847 67.2301 318.282 67.1129 317.775 66.8786C317.268 66.6399 316.865 66.2969 316.567 65.8494C316.269 65.3977 316.12 64.8523 316.12 64.2131C316.12 63.6506 316.23 63.1946 316.452 62.8452C316.674 62.4915 316.97 62.2145 317.341 62.0142C317.711 61.8139 318.12 61.6648 318.568 61.5668C319.02 61.4645 319.473 61.3835 319.929 61.3239C320.526 61.2472 321.01 61.1896 321.38 61.1513C321.755 61.1087 322.028 61.0384 322.199 60.9403C322.373 60.8423 322.461 60.6719 322.461 60.429V60.3778C322.461 59.7472 322.288 59.2571 321.943 58.9077C321.602 58.5582 321.084 58.3835 320.39 58.3835C319.669 58.3835 319.105 58.5412 318.696 58.8565C318.287 59.1719 317.999 59.5085 317.833 59.8665L316.401 59.3551C316.657 58.7585 316.998 58.294 317.424 57.9616C317.854 57.625 318.323 57.3906 318.83 57.2585C319.341 57.1222 319.844 57.054 320.338 57.054C320.654 57.054 321.016 57.0923 321.425 57.169C321.838 57.2415 322.237 57.3928 322.62 57.6229C323.008 57.853 323.33 58.2003 323.586 58.6648C323.841 59.1293 323.969 59.7514 323.969 60.5312V67H322.461V65.6705H322.384C322.282 65.8835 322.111 66.1115 321.873 66.3544C321.634 66.5973 321.316 66.804 320.92 66.9744C320.524 67.1449 320.04 67.2301 319.469 67.2301ZM319.699 65.875C320.296 65.875 320.799 65.7578 321.208 65.5234C321.621 65.2891 321.932 64.9865 322.141 64.6158C322.354 64.245 322.461 63.8551 322.461 63.446V62.0653C322.397 62.142 322.256 62.2124 322.039 62.2763C321.826 62.3359 321.578 62.3892 321.297 62.4361C321.02 62.4787 320.75 62.517 320.485 62.5511C320.225 62.581 320.015 62.6065 319.853 62.6278C319.461 62.679 319.094 62.7621 318.753 62.8771C318.417 62.9879 318.144 63.1562 317.935 63.3821C317.73 63.6037 317.628 63.9062 317.628 64.2898C317.628 64.8139 317.822 65.2102 318.21 65.4787C318.602 65.7429 319.098 65.875 319.699 65.875ZM330.711 67.2045C329.791 67.2045 328.998 66.9872 328.333 66.5526C327.669 66.1179 327.157 65.5192 326.799 64.7564C326.441 63.9936 326.262 63.1222 326.262 62.142C326.262 61.1449 326.445 60.2649 326.812 59.5021C327.183 58.7351 327.698 58.1364 328.359 57.706C329.024 57.2713 329.799 57.054 330.686 57.054C331.376 57.054 331.998 57.1818 332.552 57.4375C333.106 57.6932 333.56 58.0511 333.914 58.5114C334.267 58.9716 334.487 59.5085 334.572 60.1222H333.063C332.948 59.6747 332.693 59.2784 332.296 58.9332C331.904 58.5838 331.376 58.4091 330.711 58.4091C330.123 58.4091 329.607 58.5625 329.164 58.8693C328.725 59.1719 328.382 59.6001 328.135 60.1541C327.892 60.7038 327.771 61.3494 327.771 62.0909C327.771 62.8494 327.89 63.5099 328.129 64.0724C328.372 64.6349 328.713 65.0717 329.151 65.3828C329.595 65.6939 330.115 65.8494 330.711 65.8494C331.103 65.8494 331.459 65.7812 331.779 65.6449C332.098 65.5085 332.369 65.3125 332.59 65.0568C332.812 64.8011 332.97 64.4943 333.063 64.1364H334.572C334.487 64.7159 334.276 65.2379 333.939 65.7024C333.607 66.1626 333.166 66.5291 332.616 66.8018C332.07 67.0703 331.436 67.2045 330.711 67.2045ZM341.047 57.1818V58.4602H335.959V57.1818H341.047ZM337.442 54.8295H338.95V64.1875C338.95 64.6136 339.012 64.9332 339.136 65.1463C339.264 65.3551 339.426 65.4957 339.622 65.5682C339.822 65.6364 340.033 65.6705 340.254 65.6705C340.421 65.6705 340.557 65.6619 340.664 65.6449C340.77 65.6236 340.855 65.6065 340.919 65.5938L341.226 66.9489C341.124 66.9872 340.981 67.0256 340.798 67.0639C340.615 67.1065 340.382 67.1278 340.101 67.1278C339.675 67.1278 339.257 67.0362 338.848 66.853C338.443 66.6697 338.107 66.3906 337.838 66.0156C337.574 65.6406 337.442 65.1676 337.442 64.5966V54.8295ZM343.316 67V57.1818H344.825V67H343.316ZM344.083 55.5455C343.789 55.5455 343.536 55.4453 343.323 55.245C343.114 55.0447 343.009 54.804 343.009 54.5227C343.009 54.2415 343.114 54.0007 343.323 53.8004C343.536 53.6001 343.789 53.5 344.083 53.5C344.377 53.5 344.629 53.6001 344.838 53.8004C345.051 54.0007 345.157 54.2415 345.157 54.5227C345.157 54.804 345.051 55.0447 344.838 55.245C344.629 55.4453 344.377 55.5455 344.083 55.5455ZM351.576 67.2045C350.656 67.2045 349.863 66.9872 349.199 66.5526C348.534 66.1179 348.022 65.5192 347.664 64.7564C347.306 63.9936 347.127 63.1222 347.127 62.142C347.127 61.1449 347.311 60.2649 347.677 59.5021C348.048 58.7351 348.564 58.1364 349.224 57.706C349.889 57.2713 350.664 57.054 351.551 57.054C352.241 57.054 352.863 57.1818 353.417 57.4375C353.971 57.6932 354.425 58.0511 354.779 58.5114C355.132 58.9716 355.352 59.5085 355.437 60.1222H353.929C353.814 59.6747 353.558 59.2784 353.162 58.9332C352.77 58.5838 352.241 58.4091 351.576 58.4091C350.988 58.4091 350.473 58.5625 350.029 58.8693C349.591 59.1719 349.248 59.6001 349 60.1541C348.757 60.7038 348.636 61.3494 348.636 62.0909C348.636 62.8494 348.755 63.5099 348.994 64.0724C349.237 64.6349 349.578 65.0717 350.017 65.3828C350.46 65.6939 350.98 65.8494 351.576 65.8494C351.968 65.8494 352.324 65.7812 352.644 65.6449C352.963 65.5085 353.234 65.3125 353.456 65.0568C353.677 64.8011 353.835 64.4943 353.929 64.1364H355.437C355.352 64.7159 355.141 65.2379 354.804 65.7024C354.472 66.1626 354.031 66.5291 353.481 66.8018C352.936 67.0703 352.301 67.2045 351.576 67.2045ZM361.759 67.2045C360.813 67.2045 359.997 66.9957 359.311 66.5781C358.629 66.1562 358.103 65.5682 357.732 64.8139C357.365 64.0554 357.182 63.1733 357.182 62.1676C357.182 61.1619 357.365 60.2756 357.732 59.5085C358.103 58.7372 358.618 58.1364 359.279 57.706C359.944 57.2713 360.719 57.054 361.605 57.054C362.117 57.054 362.622 57.1392 363.12 57.3097C363.619 57.4801 364.073 57.7571 364.482 58.1406C364.891 58.5199 365.217 59.0227 365.46 59.6491C365.703 60.2756 365.824 61.0469 365.824 61.9631V62.6023H358.256V61.2983H364.29C364.29 60.7443 364.179 60.25 363.958 59.8153C363.74 59.3807 363.429 59.0376 363.025 58.7862C362.624 58.5348 362.151 58.4091 361.605 58.4091C361.005 58.4091 360.485 58.5582 360.046 58.8565C359.611 59.1506 359.277 59.5341 359.042 60.0071C358.808 60.4801 358.691 60.9872 358.691 61.5284V62.3977C358.691 63.1392 358.819 63.7678 359.074 64.2834C359.334 64.7947 359.694 65.1847 360.154 65.4531C360.615 65.7173 361.15 65.8494 361.759 65.8494C362.155 65.8494 362.513 65.794 362.833 65.6832C363.157 65.5682 363.436 65.3977 363.67 65.1719C363.904 64.9418 364.086 64.6562 364.213 64.3153L365.671 64.7244C365.517 65.2188 365.26 65.6534 364.897 66.0284C364.535 66.3991 364.088 66.6889 363.555 66.8977C363.022 67.1023 362.424 67.2045 361.759 67.2045ZM369.218 67.1023C368.903 67.1023 368.632 66.9893 368.407 66.7635C368.181 66.5376 368.068 66.267 368.068 65.9517C368.068 65.6364 368.181 65.3658 368.407 65.1399C368.632 64.9141 368.903 64.8011 369.218 64.8011C369.534 64.8011 369.804 64.9141 370.03 65.1399C370.256 65.3658 370.369 65.6364 370.369 65.9517C370.369 66.1605 370.316 66.3523 370.209 66.527C370.107 66.7017 369.968 66.8423 369.794 66.9489C369.623 67.0511 369.431 67.1023 369.218 67.1023Z" fill="#010C0B"/>
</g>
<defs>
<filter id="filter0_d_904_308" x="0" y="0" width="416" height="122" filterUnits="userSpaceOnUse" color-interpolation-filters="sRGB">
<feFlood flood-opacity="0" result="BackgroundImageFix"/>
<feColorMatrix in="SourceAlpha" type="matrix" values="0 0 0 0 0 0 0 0 0 0 0 0 0 0 0 0 0 0 127 0" result="hardAlpha"/>
<feOffset dy="12"/>
<feGaussianBlur stdDeviation="12"/>
<feComposite in2="hardAlpha" operator="out"/>
<feColorMatrix type="matrix" values="0 0 0 0 0 0 0 0 0 0 0 0 0 0 0 0 0 0 0.12 0"/>
<feBlend mode="normal" in2="BackgroundImageFix" result="effect1_dropShadow_904_308"/>
<feBlend mode="normal" in="SourceGraphic" in2="effect1_dropShadow_904_308" result="shape"/>
</filter>
</defs>
</svg>
