<svg width="201" height="52" viewBox="0 0 201 52" fill="none" xmlns="http://www.w3.org/2000/svg">
<path d="M29.7629 25.5918L29.7629 17.5487L46.2183 17.5487L46.2183 25.5918L29.7629 25.5918Z" fill="#BEF264"/>
<path d="M46.2183 17.5487L29.7629 17.5487L29.7629 0.568743C38.851 0.568742 46.2183 8.55058 46.2183 17.5487Z" fill="#BEF264"/>
<path d="M46.2183 26.8159L46.2183 34.859L29.7629 34.859L29.7629 26.8159L46.2183 26.8159Z" fill="#BEF264"/>
<path d="M29.7629 34.859L46.2183 34.859L46.2183 51.431C37.1302 51.431 29.2869 44.6312 29.7629 34.859Z" fill="#BEF264"/>
<path d="M64.1696 25.5918L64.1696 17.5487L47.8502 17.5487L47.8502 25.5918L64.1696 25.5918Z" fill="#BEF264"/>
<path d="M47.8502 17.5487L64.1696 17.5487L64.1696 0.568743C55.1566 0.568742 47.8502 8.55058 47.8502 17.5487Z" fill="#BEF264"/>
<path d="M1 25.1158H2.29195L3.5159 23.8919L5.35184 28.1077L8.54771 9.54443L10.7916 38.2393L13.6475 20.764L14.9395 25.1158H24.5951L28.267 21.852" stroke="#BEF264" stroke-width="1.08796" stroke-linecap="round" stroke-linejoin="round"/>
<path d="M13.7156 40.1434C13.7156 32.7828 19.6825 26.8159 27.0431 26.8159H28.675V36.4715C28.675 44.7334 21.9774 51.431 13.7156 51.431V40.1434Z" fill="#042F2E"/>
<path d="M76.5727 35.4544V28.2396H83.3989C85.6559 28.2396 87.3393 27.7956 88.4493 26.9076C89.5592 25.9827 90.1142 24.4657 90.1142 22.3568C90.1142 20.3588 89.5962 18.8789 88.5603 17.9169C87.5613 16.918 86.0259 16.4185 83.9539 16.4185H76.5727V9.2037H84.4534C86.5623 9.2037 88.5233 9.4627 90.3362 9.98068C92.1492 10.4617 93.7216 11.2386 95.0536 12.3116C96.4225 13.3846 97.477 14.735 98.217 16.363C98.9939 17.9909 99.3824 19.9519 99.3824 22.2458C99.3824 25.1687 98.7164 27.6106 97.3845 29.5715C96.0895 31.5325 94.2026 33.0124 91.7237 34.0114C89.2448 34.9734 86.2109 35.4544 82.622 35.4544H76.5727ZM69.8574 45.8325V9.2037H78.8481V45.8325H69.8574ZM109.876 46.6095C106.694 46.6095 104.326 45.4995 102.772 43.2796C101.255 41.0597 100.497 37.6558 100.497 33.0679V16.5295H109.487V32.9569C109.487 35.1029 109.783 36.6013 110.375 37.4523C111.004 38.3033 111.892 38.7287 113.039 38.7287C113.853 38.7287 114.593 38.5253 115.259 38.1183C115.962 37.6743 116.573 37.0268 117.091 36.1758C117.609 35.2879 117.997 34.1594 118.256 32.7904C118.552 31.4215 118.7 29.775 118.7 27.8511V16.5295H127.691V32.6239V45.8325H120.032V34.3999H119.644C119.422 37.2488 118.922 39.5797 118.145 41.3927C117.368 43.1686 116.295 44.4821 114.926 45.333C113.557 46.184 111.874 46.6095 109.876 46.6095ZM130.287 45.8325V6.98377H139.278V45.8325H130.287ZM154.735 46.6095C152.774 46.6095 150.943 46.406 149.241 45.999C147.576 45.629 146.114 45.0185 144.856 44.1676C143.635 43.3166 142.692 42.1881 142.026 40.7822C141.397 39.3392 141.138 37.6003 141.249 35.5654L149.074 34.8994C149.148 36.1203 149.426 37.1378 149.907 37.9518C150.388 38.7287 151.054 39.3022 151.905 39.6722C152.755 40.0422 153.791 40.2272 155.012 40.2272C156.159 40.2272 157.14 40.0422 157.954 39.6722C158.805 39.2652 159.23 38.5993 159.23 37.6743C159.23 37.1933 159.082 36.8048 158.786 36.5088C158.49 36.1758 157.935 35.8798 157.121 35.6208C156.344 35.3249 155.197 34.9919 153.68 34.6219C151.794 34.1409 150.092 33.6599 148.575 33.1789C147.058 32.6979 145.763 32.1245 144.69 31.4585C143.617 30.7925 142.803 29.9785 142.248 29.0166C141.693 28.0176 141.415 26.7966 141.415 25.3537C141.415 23.3187 141.952 21.5983 143.025 20.1923C144.135 18.7494 145.652 17.6579 147.576 16.918C149.5 16.141 151.72 15.7525 154.235 15.7525C156.492 15.7525 158.601 16.104 160.562 16.807C162.523 17.5099 164.059 18.6569 165.169 20.2478C166.316 21.8388 166.741 23.9477 166.445 26.5746L158.786 27.2961C158.897 26.2232 158.749 25.3167 158.342 24.5767C157.935 23.7997 157.343 23.2263 156.566 22.8563C155.789 22.4493 154.846 22.2458 153.736 22.2458C152.478 22.2458 151.498 22.4863 150.795 22.9673C150.129 23.4112 149.796 23.9847 149.796 24.6877C149.796 25.2427 149.999 25.7237 150.406 26.1307C150.85 26.5006 151.516 26.8336 152.404 27.1296C153.329 27.3886 154.513 27.6846 155.956 28.0176C157.214 28.2766 158.527 28.6096 159.896 29.0166C161.265 29.4235 162.542 29.9785 163.726 30.6815C164.91 31.3475 165.872 32.2355 166.612 33.3454C167.352 34.4554 167.722 35.8613 167.722 37.5633C167.722 39.3762 167.222 40.9672 166.223 42.3361C165.224 43.7051 163.763 44.7596 161.839 45.4995C159.915 46.2395 157.547 46.6095 154.735 46.6095ZM183.136 46.6095C180.361 46.6095 178.03 46.221 176.143 45.444C174.293 44.6301 172.795 43.5386 171.648 42.1696C170.501 40.7637 169.668 39.1727 169.15 37.3968C168.669 35.6208 168.429 33.7524 168.429 31.7915C168.429 29.6825 168.688 27.6661 169.206 25.7422C169.761 23.8182 170.593 22.1163 171.703 20.6363C172.85 19.1194 174.311 17.9354 176.087 17.0844C177.9 16.1965 180.065 15.7525 182.581 15.7525C185.097 15.7525 187.243 16.1965 189.018 17.0844C190.831 17.9354 192.274 19.1379 193.347 20.6918C194.42 22.2458 195.105 24.0402 195.401 26.0752C195.734 28.1101 195.697 30.3115 195.29 32.6794L174.034 33.0124V28.1286L188.408 27.8511L187.243 30.6815C187.465 28.9796 187.428 27.5551 187.132 26.4081C186.873 25.2242 186.373 24.3362 185.633 23.7442C184.893 23.1153 183.876 22.8008 182.581 22.8008C181.212 22.8008 180.12 23.1523 179.306 23.8552C178.492 24.5582 177.919 25.5572 177.586 26.8521C177.253 28.1101 177.086 29.6085 177.086 31.3475C177.086 34.3444 177.586 36.5273 178.585 37.8963C179.584 39.2652 181.119 39.9497 183.191 39.9497C184.079 39.9497 184.819 39.8387 185.411 39.6167C186.003 39.3947 186.484 39.0802 186.854 38.6733C187.224 38.2293 187.483 37.7113 187.631 37.1193C187.779 36.4903 187.835 35.7873 187.798 35.0104L196.011 35.4544C196.122 36.6753 195.993 37.9333 195.623 39.2282C195.29 40.5232 194.642 41.7257 193.68 42.8356C192.718 43.9456 191.368 44.8521 189.629 45.555C187.927 46.258 185.763 46.6095 183.136 46.6095Z" fill="#042F2E"/>
<path d="M47.8502 26.9517H64.1696V27.9036C64.1696 32.4101 60.5164 36.0633 56.0099 36.0633C51.5034 36.0633 47.8502 32.4101 47.8502 27.9036V26.9517Z" fill="#042F2E"/>
</svg>
